<?xml version="1.0" encoding="UTF-8" standalone="no"?><!DOCTYPE svg PUBLIC "-//W3C//DTD SVG 1.1//EN" "http://www.w3.org/Graphics/SVG/1.1/DTD/svg11.dtd"><svg width="100%" height="100%" viewBox="0 0 345 160" version="1.1" xmlns="http://www.w3.org/2000/svg" xmlns:xlink="http://www.w3.org/1999/xlink" xml:space="preserve" xmlns:serif="http://www.serif.com/" style="fill-rule:evenodd;clip-rule:evenodd;stroke-linejoin:round;stroke-miterlimit:1.41421;"><g><g><path d="M239.973,31.891c0.054,0.054 0.138,0.332 0.178,0.587c0.124,0.791 1.057,2.934 1.276,2.934c0.123,0 0.143,0.102 0.051,0.255c-0.083,0.139 -0.025,0.255 0.128,0.255c0.153,0 0.211,0.116 0.128,0.255c-0.085,0.141 0.012,0.193 0.216,0.115c0.206,-0.078 0.677,0.145 1.059,0.5c0.779,0.725 0.74,0.711 2.22,0.77c0.612,0.025 1.182,-0.074 1.288,-0.224c0.128,-0.178 0.268,-0.153 0.421,0.077c0.188,0.28 0.249,0.283 0.332,0.013c0.061,-0.197 0.523,-0.337 1.135,-0.345c0.766,-0.009 1.001,-0.102 0.906,-0.357c-0.095,-0.256 0.013,-0.302 0.421,-0.179c0.434,0.131 0.516,0.081 0.392,-0.242c-0.166,-0.434 0.391,-0.454 0.701,-0.026c0.203,0.281 -0.05,1.191 -0.289,1.04c-0.145,-0.091 -1.257,1.588 -1.44,2.175c-0.302,0.97 -0.452,1.276 -0.627,1.276c-0.112,0 -0.169,1.352 -0.127,3.01c0.074,2.909 0.237,4.187 0.606,4.746c0.101,0.153 0.196,0.339 0.21,0.408c0.015,0.073 0.169,0.459 0.357,0.893c0.188,0.434 0.343,0.837 0.357,0.931c0.014,0.09 0.291,0.472 0.6,0.83c0.309,0.357 0.574,0.775 0.574,0.905c0,0.133 0.191,0.173 0.421,0.09c0.255,-0.093 0.356,-0.048 0.255,0.114c-0.094,0.153 -0.062,0.307 0.077,0.358c0.129,0.047 0.177,0.357 0.102,0.663c-0.075,0.306 -0.218,0.527 -0.306,0.472c-0.093,-0.057 -0.189,0.242 -0.217,0.676c-0.029,0.434 -0.153,0.845 -0.281,0.929c-0.255,0.168 -0.707,1.409 -0.536,1.471c0.055,0.02 -0.136,0.305 -0.408,0.611c-0.272,0.306 -0.361,0.491 -0.191,0.395c0.245,-0.137 0.28,0.077 0.153,0.919c-0.093,0.612 -0.147,1.322 -0.124,1.607c0.189,2.322 0.311,3.254 0.585,4.465c0.173,0.765 0.387,1.464 0.47,1.538c0.306,0.269 0.785,2.05 0.622,2.314c-0.11,0.179 -0.076,0.238 0.08,0.141c0.143,-0.089 0.333,0.012 0.408,0.217c0.075,0.204 0.045,0.382 -0.064,0.382c-0.172,0 -0.184,0.332 -0.046,1.327c0.011,0.082 0.352,0.289 0.735,0.446c0.383,0.158 0.73,0.507 0.748,0.753c0.068,0.919 1.359,4.217 1.859,4.746c0.289,0.306 0.424,0.629 0.314,0.752c-0.104,0.119 -0.063,0.143 0.09,0.054c0.293,-0.17 0.732,0.52 0.622,0.98c-0.037,0.153 0.01,0.183 0.117,0.076c0.208,-0.207 1.659,1.199 1.659,1.608c0,0.178 0.069,0.242 0.166,0.153c0.09,-0.084 0.612,0.2 1.148,0.625c0.536,0.424 0.982,0.703 0.982,0.612c0,-0.093 0.421,0.121 0.957,0.485c0.536,0.364 1.046,0.65 1.161,0.65c0.114,0 0.572,0.383 1.038,0.868c0.686,0.714 1.321,1.12 1.819,1.163c0.069,0.006 0.562,0.257 1.072,0.546c0.51,0.29 1.172,0.577 1.441,0.625c0.281,0.051 0.676,0.251 0.906,0.46c0.223,0.201 0.727,0.451 1.11,0.548c0.383,0.098 0.702,0.289 0.702,0.421c0,0.146 0.087,0.191 0.216,0.115c0.119,-0.07 0.638,0.097 1.149,0.37c0.51,0.273 1.018,0.474 1.122,0.446c0.105,-0.028 0.421,0.075 0.702,0.228c0.574,0.313 0.663,0.334 1.428,0.334c0.281,0 0.459,0.086 0.396,0.191c-0.065,0.108 0.217,0.208 0.651,0.23c0.433,0.021 0.837,0.132 0.931,0.255c0.1,0.13 0.268,0.223 0.421,0.232c0.689,0.042 1.648,0.45 1.523,0.648c-0.082,0.13 0.11,0.191 0.441,0.14c0.332,-0.05 0.754,-0.006 0.97,0.102c0.21,0.105 0.867,0.394 1.454,0.638c0.638,0.266 1.005,0.56 0.906,0.727c-0.114,0.194 -0.051,0.19 0.204,-0.012c0.266,-0.211 0.549,-0.219 1.008,-0.026c0.357,0.15 0.89,0.246 1.212,0.217c0.331,-0.029 0.644,0.127 0.74,0.37c0.13,0.332 0.217,0.348 0.408,0.076c0.197,-0.28 0.266,-0.285 0.37,-0.025c0.071,0.178 0.223,0.263 0.344,0.191c0.118,-0.069 0.778,-0.001 1.442,0.149c1.007,0.227 3.674,0.448 7.143,0.592c0.332,0.014 0.587,0.091 0.587,0.178c0,0.207 1.148,0.083 1.557,-0.169c0.204,-0.125 0.246,-0.09 0.127,0.105c-0.123,0.202 0.064,0.293 0.6,0.293c0.433,0 0.778,0.119 0.778,0.268c0,0.153 0.109,0.201 0.255,0.11c0.536,-0.331 1.381,-0.355 1.585,-0.046c0.134,0.204 0.201,0.213 0.201,0.026c0,-0.159 0.332,-0.292 0.765,-0.307c0.536,-0.017 0.712,0.067 0.587,0.281c-0.131,0.225 -0.076,0.225 0.204,0c0.211,-0.168 0.613,-0.299 0.893,-0.29c1.378,0.045 4.848,-0.35 5.129,-0.583c0.229,-0.19 0.331,-0.185 0.331,0.018c0,0.153 0.122,0.221 0.255,0.141c0.14,-0.084 0.574,-0.2 0.957,-0.255c0.398,-0.058 1.033,-0.169 1.467,-0.256c0.434,-0.086 0.959,-0.169 1.212,-0.191c0.255,-0.022 0.447,-0.153 0.447,-0.306c0,-0.15 0.089,-0.128 0.204,0.051c0.153,0.239 0.433,0.252 1.122,0.051c0.511,-0.149 1.015,-0.245 1.136,-0.217c0.115,0.027 0.395,-0.014 0.599,-0.089c1.123,-0.413 1.469,-0.518 2.041,-0.617c0.357,-0.062 0.778,-0.122 0.957,-0.136c0.179,-0.014 0.319,-0.132 0.319,-0.268c0,-0.138 0.153,-0.182 0.357,-0.102c0.197,0.078 0.42,-0.025 0.498,-0.229c0.077,-0.205 0.232,-0.356 0.344,-0.339c0.536,0.083 1.102,-0.068 0.976,-0.261c-0.071,-0.108 0.07,-0.196 0.3,-0.188c0.459,0.017 3.415,-1.351 3.675,-1.7c0.087,-0.117 0.305,-0.226 0.509,-0.255c0.194,-0.028 0.638,-0.25 0.97,-0.485c0.331,-0.235 0.729,-0.363 0.867,-0.281c0.153,0.092 0.194,0.057 0.102,-0.089c-0.086,-0.137 0.064,-0.431 0.344,-0.676c0.332,-0.289 0.498,-0.332 0.498,-0.128c0,0.168 0.18,0.051 0.395,-0.255c0.216,-0.306 0.553,-0.561 0.74,-0.561c0.179,0 0.388,-0.117 0.434,-0.242c0.048,-0.129 0.268,-0.279 0.472,-0.321c0.396,-0.082 0.944,-0.532 2.985,-2.451c0.74,-0.696 1.352,-1.399 1.352,-1.553c0,-0.153 0.116,-0.281 0.255,-0.281c0.137,0 0.256,-0.178 0.256,-0.382c0,-0.202 0.229,-0.582 0.484,-0.804c0.256,-0.221 0.422,-0.59 0.352,-0.778c-0.115,-0.31 0.21,-0.465 0.771,-0.367c0.122,0.021 0.148,-0.057 0.064,-0.194c-0.075,-0.124 0.084,-0.625 0.344,-1.085c0.261,-0.459 0.544,-1.232 0.613,-1.671c0.071,-0.459 0.194,-0.922 0.28,-1.059c0.086,-0.135 0.013,-0.298 -0.166,-0.37c-0.194,-0.077 -0.14,-0.137 0.141,-0.153c0.255,-0.014 0.385,-0.144 0.293,-0.293c-0.097,-0.156 -0.065,-0.396 0.077,-0.574c0.135,-0.172 0.203,-0.868 0.153,-1.582c-0.05,-0.714 -0.124,-1.781 -0.168,-2.424c-0.069,-0.995 -0.661,-2.65 -0.684,-1.913c-0.015,0.448 -1.266,-1.199 -1.532,-2.016c-0.141,-0.434 -0.222,-1.136 -0.18,-1.556c0.043,-0.434 -0.023,-0.904 -0.153,-1.085c-0.147,-0.204 -0.134,-0.318 0.038,-0.318c0.15,0 0.223,-0.141 0.166,-0.319c-0.056,-0.173 -0.154,-0.728 -0.216,-1.212c-0.136,-1.072 -1.13,-3.756 -1.468,-3.966c-0.138,-0.085 -0.179,-0.229 -0.102,-0.359c0.068,-0.115 -0.051,-0.282 -0.255,-0.357c-0.205,-0.075 -0.383,-0.301 -0.383,-0.485c0,-0.189 -0.23,-0.505 -0.51,-0.701c-0.318,-0.223 -0.511,-0.651 -0.511,-1.136c0,-0.423 -0.157,-1.441 -0.344,-2.232c-0.187,-0.791 -0.275,-1.536 -0.192,-1.633c0.09,-0.104 0.026,-0.106 -0.153,-0.004c-0.273,0.155 -0.461,-0.175 -0.259,-0.455c0.03,-0.041 -0.119,-0.281 -0.315,-0.511c-0.205,-0.24 -0.386,-0.74 -0.408,-1.122c-0.021,-0.383 -0.112,-0.859 -0.204,-1.072c-0.091,-0.21 -0.2,-0.842 -0.242,-1.403c-0.042,-0.561 -0.168,-1.17 -0.28,-1.352c-0.392,-0.637 0.127,-0.806 1.198,-0.39c0.587,0.227 1.187,0.496 1.327,0.594c0.139,0.097 0.574,0.161 0.957,0.14c0.382,-0.02 0.701,0.061 0.701,0.179c0,0.124 0.23,0.091 0.536,-0.077c0.306,-0.167 0.591,-0.238 0.663,-0.166c0.071,0.071 0.498,-0.026 0.957,-0.216c0.459,-0.191 0.903,-0.277 0.995,-0.192c0.097,0.089 0.166,0.026 0.166,-0.153c0,-0.163 0.179,-0.485 0.383,-0.689c0.204,-0.204 0.382,-0.299 0.382,-0.204c0,0.164 0.829,-0.689 1.985,-2.041c0.305,-0.357 0.567,-0.793 0.567,-0.944c0,-0.163 0.166,-0.216 0.395,-0.128c0.255,0.099 0.329,0.045 0.207,-0.153c-0.251,-0.408 -0.301,-1.228 -0.066,-1.083c0.225,0.14 0.878,-1.621 0.781,-2.106c-0.036,-0.178 0.074,-0.332 0.239,-0.332c0.179,0 0.237,-0.068 0.14,-0.165c-0.086,-0.086 -0.03,-0.332 0.115,-0.511c0.208,-0.255 0.205,-0.344 -0.013,-0.344c-0.199,0 -0.28,-0.472 -0.255,-1.467c0.022,-0.817 -0.012,-1.637 -0.076,-1.85c-0.064,-0.214 -0.239,-0.765 -0.396,-1.25c-0.156,-0.485 -0.224,-0.963 -0.153,-1.084c0.077,-0.13 0.026,-0.217 -0.127,-0.217c-0.139,0 -0.336,-0.255 -0.433,-0.561c-0.219,-0.689 -0.752,-1.265 -0.971,-1.047c-0.086,0.087 -0.153,-0.025 -0.153,-0.255c0,-0.217 -0.268,-0.592 -0.574,-0.803c-0.306,-0.211 -0.544,-0.485 -0.51,-0.587c0.036,-0.107 -0.077,-0.192 -0.255,-0.192c-0.18,0 -0.524,-0.255 -0.791,-0.586c-0.267,-0.332 -0.527,-0.532 -0.6,-0.46c-0.07,0.071 -0.372,-0.14 -0.676,-0.472c-0.303,-0.331 -0.662,-0.622 -0.803,-0.65c-0.139,-0.028 -0.664,-0.249 -1.149,-0.485c-0.484,-0.235 -1.271,-0.428 -1.722,-0.421c-0.459,0.007 -0.829,-0.067 -0.829,-0.166c0,-0.097 -0.319,-0.085 -0.701,0.026c-0.383,0.111 -0.963,0.181 -1.276,0.153c-0.306,-0.027 -0.521,0.002 -0.459,0.064c0.066,0.066 -0.046,0.28 -0.268,0.51c-0.223,0.23 -0.329,0.54 -0.255,0.74c0.066,0.178 0.004,0.344 -0.128,0.344c-0.444,0 -0.102,0.612 0.536,0.959c0.544,0.297 1.633,0.505 3.266,0.626c0.178,0.013 0.306,0.129 0.306,0.278c0,0.153 0.066,0.189 0.166,0.089c0.09,-0.09 0.548,0.124 1.007,0.472c0.46,0.348 0.912,0.638 0.995,0.638c0.383,0 1.392,1.171 1.275,1.48c-0.068,0.178 -0.009,0.259 0.129,0.175c0.279,-0.172 1.53,0.998 1.53,1.432c0,0.151 0.153,0.222 0.332,0.153c0.217,-0.083 0.342,0.102 0.36,0.536c0.028,0.638 0.234,1.709 0.329,1.709c0.028,0 0.074,0.88 0.102,1.978c0.028,1.097 -0.04,1.977 -0.153,1.977c-0.115,0 -0.204,0.255 -0.204,0.587c0,0.642 -1.633,2.793 -2.475,3.26c-0.306,0.17 -0.503,0.41 -0.434,0.528c0.077,0.131 0.046,0.197 -0.076,0.166c-0.113,-0.028 -0.638,0.036 -1.174,0.143c-0.995,0.199 -2.73,-0.183 -2.73,-0.602c0,-0.109 -0.242,-0.139 -0.523,-0.064c-0.281,0.076 -0.724,-0.043 -0.957,-0.256c-0.453,-0.415 -0.484,-0.421 -2.628,-0.557c-0.918,-0.058 -1.707,0.039 -2.143,0.265c-0.382,0.198 -0.819,0.283 -0.982,0.191c-0.153,-0.086 -0.205,-0.068 -0.109,0.038c0.213,0.236 -0.797,1.076 -1.154,0.96c-0.122,-0.04 -0.147,0.025 -0.062,0.163c0.16,0.26 -1.137,1.301 -1.622,1.301c-0.16,0 -0.28,0.153 -0.28,0.357c0,0.195 -0.319,0.485 -0.702,0.638c-0.383,0.153 -0.992,0.439 -1.34,0.628c-1.25,0.681 -2.39,0.942 -2.61,0.597c-0.147,-0.23 -0.196,-0.23 -0.196,0c0,0.186 -0.166,0.246 -0.421,0.153c-0.306,-0.111 -0.369,-0.069 -0.23,0.153c0.152,0.242 0.09,0.248 -0.293,0.028c-0.765,-0.438 -1.938,-0.842 -2.526,-0.869c-0.306,-0.014 -0.642,-0.108 -0.74,-0.205c-0.103,-0.104 -0.344,-0.114 -0.574,-0.026c-0.229,0.089 -0.331,0.047 -0.242,-0.102c0.094,-0.156 -0.089,-0.21 -0.472,-0.14c-0.332,0.061 -0.625,0.007 -0.625,-0.115c0,-0.124 -0.498,-0.212 -1.085,-0.191c-0.586,0.021 -1.254,-0.09 -1.454,-0.242c-0.281,-0.213 -0.323,-0.204 -0.178,0.038c0.13,0.218 0.025,0.319 -0.332,0.319c-0.281,0 -0.523,0.124 -0.523,0.268c0,0.183 -0.153,0.187 -0.485,0.012c-0.383,-0.201 -0.477,-0.166 -0.446,0.166c0.02,0.226 -0.205,0.545 -0.485,0.689c-0.283,0.145 -0.804,0.532 -1.136,0.844c-0.561,0.527 -0.745,0.611 -1.199,0.544c-0.08,-0.012 -0.238,0.117 -0.331,0.27c-0.102,0.168 -0.332,0.321 -0.536,0.358c-0.204,0.036 -0.51,0.159 -0.715,0.287c-0.551,0.345 -1.888,0.378 -2.755,0.068c-0.459,-0.164 -0.772,-0.358 -0.714,-0.445c0.054,-0.081 -0.102,-0.171 -0.332,-0.191c-0.243,-0.021 -0.714,-0.089 -1.072,-0.153c-0.357,-0.064 -0.727,-0.126 -0.842,-0.14c-0.114,-0.015 -0.125,-0.166 -0.025,-0.345c0.137,-0.245 0.102,-0.248 -0.153,-0.013c-0.187,0.173 -0.51,0.216 -0.74,0.1c-0.663,-0.336 -2.2,-0.788 -2.679,-0.788c-0.23,0 -0.374,-0.096 -0.306,-0.205c0.069,-0.109 -0.332,-0.192 -0.868,-0.178c-0.535,0.014 -0.943,-0.057 -0.884,-0.153c0.19,-0.306 -0.587,-0.442 -0.876,-0.153c-0.179,0.178 -0.281,0.188 -0.281,0.025c0,-0.28 -3.956,-0.304 -4.235,-0.025c-0.104,0.104 -0.344,0.045 -0.574,-0.141c-0.306,-0.246 -0.352,-0.246 -0.204,0c0.13,0.217 -0.013,0.33 -0.447,0.352c-1.148,0.058 -1.53,0.133 -2.296,0.451c-0.408,0.169 -0.9,0.244 -1.097,0.167c-0.204,-0.08 -0.297,-0.042 -0.217,0.089c0.076,0.124 -0.293,0.317 -0.803,0.419c-1.302,0.26 -2.118,0.295 -2.118,0.091c0,-0.085 -0.204,-0.153 -0.459,-0.153c-0.893,0 -1.072,-0.072 -1.072,-0.433c0,-0.256 -0.14,-0.332 -0.421,-0.23c-0.255,0.093 -0.36,0.053 -0.268,-0.102c0.082,-0.135 -0.14,-0.411 -0.472,-0.587c-0.331,-0.176 -0.691,-0.553 -0.765,-0.804c-0.076,-0.255 -0.252,-0.472 -0.383,-0.472c-0.129,0 -0.242,-0.178 -0.242,-0.382c0,-0.408 -1.948,-2.698 -2.245,-2.638c-0.102,0.02 -0.511,-0.097 -0.944,-0.271c-0.434,-0.173 -1.075,-0.317 -1.48,-0.331c-0.383,-0.014 -0.774,-0.121 -0.842,-0.23c-0.072,-0.114 -0.408,-0.098 -0.766,0.038c-0.345,0.132 -0.982,0.243 -1.39,0.243c-0.412,0 -1.365,0.235 -2.105,0.519c-1.556,0.598 -1.799,0.627 -1.589,0.195c0.087,-0.181 0.004,-0.14 -0.184,0.089c-0.215,0.264 -0.651,0.402 -1.161,0.37c-0.459,-0.028 -0.861,0.066 -0.919,0.217c-0.054,0.144 -0.113,0.115 -0.127,-0.064c-0.014,-0.178 -0.143,-0.261 -0.281,-0.178c-0.143,0.086 -0.255,-0.026 -0.255,-0.255c0,-0.23 -0.111,-0.34 -0.255,-0.251c-0.357,0.222 -1.56,-0.643 -1.356,-0.974c0.092,-0.149 0.029,-0.176 -0.149,-0.066c-0.538,0.331 -2.782,-2.383 -2.435,-2.945c0.126,-0.204 0.049,-0.255 -0.232,-0.153c-0.28,0.102 -0.42,0.03 -0.42,-0.217c0,-0.204 -0.132,-0.37 -0.294,-0.37c-0.168,0 -0.43,-0.191 -0.612,-0.446c-0.182,-0.255 -0.412,-0.447 -0.536,-0.447c-0.117,0 -0.498,-0.26 -0.829,-0.568c-0.638,-0.593 -2.199,-0.807 -2.357,-0.325c-0.065,0.197 -0.309,0.201 -0.82,0.013c-0.408,-0.15 -0.827,-0.206 -0.956,-0.127c-0.124,0.075 -0.23,-0.013 -0.23,-0.192c0,-0.27 -0.04,-0.268 -0.217,0.013c-0.137,0.219 -0.51,0.298 -1.02,0.217c-0.434,-0.069 -0.746,-0.034 -0.677,0.076c0.141,0.227 -1.046,0.434 -1.709,0.298c-0.255,-0.052 -0.408,-0.173 -0.344,-0.272c0.062,-0.097 -0.141,-0.171 -0.447,-0.161c-0.677,0.022 -1.709,-1.905 -1.634,-3.054c0.056,-0.867 0.883,-1.969 1.302,-1.737c0.154,0.085 0.209,0.074 0.121,-0.023c-0.22,-0.246 0.568,-1.194 0.849,-1.02c0.123,0.076 0.204,0.035 0.204,-0.103c0,-0.217 1.709,-0.986 2.016,-0.907c0.085,0.022 0.727,0.108 1.441,0.193c1.225,0.145 1.317,0.115 1.858,-0.613c0.608,-0.816 1.063,-0.98 1.063,-0.382c0,0.201 0.23,0.528 0.485,0.689c0.255,0.161 0.431,0.439 0.37,0.586c-0.062,0.152 0.131,0.562 0.421,0.893c0.291,0.332 0.472,0.771 0.396,0.957c-0.073,0.179 -0.018,0.271 0.114,0.192c0.141,-0.084 0.526,0.14 0.855,0.497c0.33,0.357 0.738,0.651 0.906,0.651c0.163,0 0.372,0.178 0.446,0.382c0.075,0.204 0.248,0.318 0.37,0.243c0.13,-0.08 0.336,0.115 0.472,0.446c0.137,0.332 0.248,0.443 0.255,0.255c0.011,-0.26 0.09,-0.26 0.37,0c0.204,0.19 0.309,0.414 0.243,0.523c-0.067,0.112 0.051,0.128 0.28,0.039c0.223,-0.086 0.463,0.025 0.549,0.255c0.086,0.229 0.248,0.352 0.37,0.28c0.13,-0.076 0.278,-0.025 0.37,0.128c0.092,0.153 0.25,0.199 0.395,0.115c0.13,-0.075 0.243,0.038 0.243,0.242c0,0.23 0.153,0.327 0.382,0.243c0.205,-0.075 0.383,-0.01 0.383,0.14c0,0.158 -0.217,0.281 -0.497,0.281c-0.281,0 -0.57,0.116 -0.664,0.267c-0.118,0.192 -0.268,0.181 -0.523,-0.038c-0.286,-0.245 -0.329,-0.229 -0.217,0.077c0.075,0.204 -0.024,0.549 -0.211,0.74c-0.527,0.534 -0.465,2.424 0.097,2.93c0.476,0.429 1.505,0.31 1.505,-0.175c0,-0.153 0.102,-0.194 0.255,-0.102c0.146,0.088 0.255,-0.077 0.255,-0.383c0,-0.678 0.577,-0.561 0.627,0.128c0.035,0.485 0.625,1.706 0.641,1.327c0.004,-0.117 0.199,-0.1 0.454,0.038c0.354,0.192 0.508,0.115 0.74,-0.37c0.196,-0.408 0.204,-0.557 0.026,-0.447c-0.163,0.101 -0.198,0.051 -0.09,-0.127c0.1,-0.164 0.421,-0.294 0.728,-0.294c0.51,0 0.515,-0.024 0.076,-0.344c-0.332,-0.242 -0.385,-0.397 -0.179,-0.523c0.154,-0.093 0.233,-0.282 0.166,-0.395c-0.068,-0.116 0.051,-0.364 0.255,-0.532c0.542,-0.446 0.485,-1.106 -0.076,-0.894c-0.332,0.124 -0.362,0.091 -0.128,-0.144c0.235,-0.234 0.562,-0.231 1.404,0.013c0.612,0.178 1.508,0.336 2.028,0.357c0.51,0.022 0.879,0.125 0.816,0.23c-0.064,0.108 0.141,0.191 0.472,0.191c0.332,0 0.748,0.106 0.957,0.243c0.23,0.15 0.486,0.145 0.676,-0.013c0.204,-0.17 0.37,-0.153 0.498,0.051c0.132,0.212 0.089,0.243 -0.141,0.102c-0.229,-0.141 -0.272,-0.11 -0.14,0.102c0.128,0.204 0.293,0.217 0.498,0.038c0.178,-0.156 0.401,-0.172 0.535,-0.038c0.221,0.221 2.373,0.561 3.547,0.561c0.255,0 0.708,0.121 0.957,0.256c0.331,0.179 0.472,0.156 0.472,-0.077c0,-0.246 0.056,-0.242 0.216,0.013c0.161,0.255 0.267,0.268 0.409,0.051c0.127,-0.196 0.293,-0.208 0.497,-0.038c0.169,0.14 0.536,0.259 0.817,0.265c1.76,0.033 2.147,0.074 2.053,0.219c-0.063,0.099 0.753,0.207 1.825,0.243c1.224,0.04 2.014,0.181 2.143,0.382c0.155,0.242 0.204,0.23 0.204,-0.051c0,-0.28 0.074,-0.296 0.306,-0.063c0.383,0.382 0.804,0.401 0.572,0.025c-0.11,-0.179 -0.072,-0.232 0.091,-0.127c0.154,0.097 1.123,0.227 2.144,0.286c2.908,0.168 5.868,0.375 6.71,0.469c0.433,0.049 0.837,-0.03 0.931,-0.181c0.115,-0.186 0.268,-0.186 0.497,-0.001c0.37,0.298 9.134,0.304 9.619,0.007c0.153,-0.094 0.35,-0.056 0.434,0.083c0.092,0.153 0.234,0.209 0.357,0.14c0.111,-0.062 1.123,-0.178 2.22,-0.255c1.097,-0.076 2.48,-0.216 3.036,-0.307c1.02,-0.167 2.149,-0.288 3.01,-0.324c0.255,-0.011 0.409,-0.105 0.345,-0.211c-0.064,-0.107 0.229,-0.214 0.663,-0.242c0.434,-0.029 0.848,-0.142 0.936,-0.255c0.174,-0.225 0.71,-0.393 1.45,-0.453c0.663,-0.054 1.166,-0.364 1.005,-0.619c-0.061,-0.097 0.143,-0.173 0.449,-0.166c0.306,0.007 0.532,-0.126 0.497,-0.293c-0.034,-0.165 0.09,-0.248 0.268,-0.18c0.409,0.155 2.22,-0.594 2.22,-0.917c0,-0.136 0.179,-0.255 0.383,-0.255c0.204,0 0.382,-0.119 0.382,-0.256c0,-0.145 0.115,-0.255 0.268,-0.255c0.156,0 0.434,-0.16 0.664,-0.382c0.229,-0.223 0.518,-0.308 0.689,-0.205c0.165,0.101 0.132,-0.038 -0.077,-0.318c-0.209,-0.281 -0.281,-0.423 -0.166,-0.325c0.244,0.206 1.939,-1.372 1.939,-1.806c0,-0.178 0.096,-0.247 0.23,-0.164c0.306,0.19 0.845,-0.729 0.592,-1.009c-0.11,-0.123 -0.082,-0.149 0.071,-0.067c0.378,0.205 0.759,-0.342 0.844,-1.209c0.042,-0.434 0.092,-0.959 0.113,-1.212c0.022,-0.255 0.159,-0.403 0.319,-0.344c0.148,0.053 0.304,-0.128 0.331,-0.383c0.113,-1.097 0.153,-1.25 0.332,-1.25c0.205,0 0.119,-4.873 -0.1,-5.741c-0.071,-0.281 -0.141,-0.659 -0.155,-0.842c-0.015,-0.204 -0.148,-0.258 -0.344,-0.14c-0.225,0.135 -0.218,0.064 0.025,-0.243c0.243,-0.306 0.258,-0.433 0.051,-0.433c-0.164,0 -0.265,-0.141 -0.229,-0.319c0.034,-0.17 -0.085,-0.587 -0.256,-0.893c-0.17,-0.306 -0.247,-0.574 -0.165,-0.574c0.087,0 -0.079,-0.332 -0.383,-0.766c-0.304,-0.433 -0.447,-0.77 -0.332,-0.778c0.111,-0.007 -0.013,-0.177 -0.268,-0.37c-0.28,-0.212 -0.394,-0.491 -0.28,-0.689c0.103,-0.178 0.097,-0.246 -0.013,-0.146c-0.222,0.201 -1.148,-0.874 -1.148,-1.333c0,-0.154 -0.116,-0.211 -0.255,-0.128c-0.139,0.084 -0.377,-0.166 -0.523,-0.549c-0.146,-0.382 -0.494,-0.858 -0.766,-1.046c-0.28,-0.194 -0.497,-0.477 -0.497,-0.65c0,-0.434 -0.975,-1.001 -1.353,-0.787c-0.178,0.102 -0.228,0.09 -0.12,-0.03c0.205,-0.226 -0.39,-0.893 -0.798,-0.893c-0.153,0 -0.281,-0.115 -0.281,-0.255c0,-0.153 -0.102,-0.255 -0.255,-0.255c-0.277,0 -1.816,-1.02 -2.077,-1.378c-0.092,-0.125 -0.296,-0.148 -0.449,-0.051c-0.165,0.105 -0.28,0 -0.28,-0.255c0,-0.229 -0.078,-0.355 -0.166,-0.268c-0.094,0.094 -0.421,0 -0.753,-0.217c-0.357,-0.232 -0.646,-0.282 -0.74,-0.127c-0.089,0.149 -0.28,0.255 -0.459,0.255c-0.184,0 -0.153,-0.099 0.077,-0.247c0.379,-0.244 0.357,-0.271 -0.307,-0.368c-0.178,-0.026 -0.307,-0.172 -0.28,-0.316c0.029,-0.153 -0.217,-0.219 -0.574,-0.153c-0.357,0.066 -0.625,-0.006 -0.625,-0.166c0,-0.155 -0.166,-0.281 -0.37,-0.281c-0.204,0 -0.497,-0.229 -0.651,-0.51c-0.195,-0.354 -0.472,-0.475 -0.906,-0.396c-0.408,0.076 -0.709,-0.035 -0.867,-0.318c-0.157,-0.281 -0.247,-0.317 -0.255,-0.102c-0.01,0.252 -0.141,0.262 -0.549,0.038c-0.306,-0.168 -0.678,-0.239 -0.867,-0.166c-0.179,0.069 -0.444,0.016 -0.574,-0.115c-0.133,-0.133 -0.664,-0.265 -1.174,-0.293c-0.51,-0.028 -0.931,-0.126 -0.931,-0.217c0,-0.095 -0.191,-0.138 -0.447,-0.102c-0.255,0.036 -0.555,0.001 -0.701,-0.084c-0.285,-0.164 -1.888,-0.246 -5.307,-0.27c-1.48,-0.011 -2.22,-0.11 -2.22,-0.297c0,-0.213 -0.089,-0.21 -0.37,0.013c-0.246,0.196 -0.523,0.217 -0.829,0.064c-0.252,-0.127 -0.689,-0.15 -0.969,-0.051c-0.281,0.098 -0.654,0.127 -0.83,0.064c-0.185,-0.067 -0.484,0.019 -0.714,0.204c-0.306,0.247 -0.378,0.25 -0.319,0.012c0.057,-0.225 -0.676,-0.322 -2.794,-0.37c-1.913,-0.042 -2.87,0.026 -2.87,0.205c0,0.144 -0.099,0.114 -0.215,-0.064c-0.296,-0.459 -0.419,-0.475 -0.857,-0.111c-0.28,0.234 -0.46,0.257 -0.574,0.072c-0.113,-0.183 -0.318,-0.187 -0.65,-0.012c-0.255,0.134 -0.66,0.189 -0.855,0.115c-0.204,-0.078 -0.456,-0.009 -0.561,0.153c-0.142,0.217 -0.248,0.204 -0.408,-0.051c-0.174,-0.276 -0.268,-0.268 -0.472,0.038c-0.17,0.255 -0.256,0.281 -0.256,0.076c0,-0.171 -0.14,-0.255 -0.318,-0.191c-0.175,0.063 -0.842,0.155 -1.48,0.204c-0.638,0.049 -1.27,0.141 -1.403,0.204c-0.134,0.064 -0.702,0.15 -1.263,0.192c-0.562,0.042 -1.136,0.145 -1.276,0.229c-0.135,0.081 -0.459,0.188 -0.689,0.227c-0.918,0.156 -1.102,0.222 -1.285,0.462c-0.117,0.153 -0.195,0.102 -0.195,-0.127c0,-0.281 -0.054,-0.302 -0.204,-0.077c-0.115,0.173 -0.421,0.351 -0.701,0.408c-0.281,0.058 -0.665,0.169 -0.881,0.255c-0.21,0.085 -0.612,0.188 -0.893,0.23c-0.28,0.042 -0.659,0.249 -0.842,0.459c-0.287,0.332 -0.306,0.332 -0.14,0c0.169,-0.337 0.14,-0.342 -0.242,-0.038c-0.23,0.182 -0.62,0.272 -0.83,0.191c-0.229,-0.088 -0.329,-0.046 -0.237,0.102c0.148,0.24 0.046,0.292 -0.694,0.355c-0.187,0.016 -0.548,0.223 -0.829,0.475c-0.281,0.252 -0.697,0.446 -0.957,0.446c-0.255,0 -0.459,0.131 -0.459,0.293c0,0.154 -0.073,0.221 -0.153,0.141c-0.083,-0.084 -0.281,-0.047 -0.434,0.08c-0.638,0.53 -2.334,1.581 -2.908,1.802c-0.358,0.137 -0.538,0.358 -0.434,0.529c0.093,0.153 0.057,0.22 -0.077,0.14c-0.143,-0.086 -0.65,0.114 -1.16,0.459c-0.511,0.346 -0.99,0.535 -1.098,0.434c-0.106,-0.099 -0.117,0.026 -0.025,0.281c0.092,0.255 0.075,0.406 -0.038,0.339c-0.187,-0.11 -0.562,0.143 -2.016,1.364c-0.153,0.129 -0.35,0.166 -0.434,0.083c-0.141,-0.141 -0.251,0.306 -0.181,0.74c0.015,0.096 -0.125,0.125 -0.303,0.063c-0.185,-0.064 -0.574,0.111 -0.881,0.396c-0.306,0.285 -0.627,0.51 -0.727,0.51c-0.101,0 -0.493,0.332 -0.905,0.766c-0.413,0.433 -0.822,0.765 -0.944,0.765c-0.122,0 -0.363,0.281 -0.549,0.638c-0.186,0.357 -0.427,0.638 -0.549,0.638c-0.118,0 -0.216,0.127 -0.216,0.28c0,0.408 -0.667,1.003 -0.893,0.798c-0.119,-0.108 -0.135,-0.058 -0.039,0.121c0.097,0.178 0.055,0.375 -0.102,0.472c-0.144,0.089 -0.45,0.625 -0.663,1.161c-0.213,0.535 -0.507,0.995 -0.638,0.995c-0.138,0 -0.171,0.114 -0.076,0.268c0.094,0.153 0.034,0.421 -0.141,0.625c-0.175,0.204 -0.24,0.466 -0.153,0.612c0.092,0.153 0.072,0.305 -0.051,0.38c-0.317,0.195 -0.37,2.018 -0.081,2.784c0.26,0.689 0.26,0.689 -1.322,0.293c-0.308,-0.077 -1.34,-0.181 -2.284,-0.23c-1.479,-0.076 -1.772,-0.019 -2.079,0.409c-0.201,0.28 -0.513,0.521 -0.714,0.552c-1.017,0.156 -3.596,2.497 -4.044,3.67c-0.331,0.868 -0.712,2.567 -0.6,2.679Zm12.145,10.461c0.382,0.055 0.769,-0.028 0.831,-0.179c0.104,-0.247 0.242,0.765 0.167,1.225c-0.017,0.107 0.053,0.178 0.175,0.178c0.116,0 0.197,0.255 0.187,0.587c-0.021,0.663 -1.301,2.73 -1.692,2.73c-0.153,0 -0.204,-0.081 -0.128,-0.204c0.071,-0.113 0.025,-0.37 -0.102,-0.574c-0.127,-0.205 -0.212,-1.148 -0.191,-2.118l0.038,-1.747l0.715,0.102Zm0.051,5.204c0.466,0.664 1.893,0.773 2.332,0.179c0.302,-0.408 0.345,-0.409 0.719,-0.026c0.543,0.556 0.521,0.729 -0.168,1.342c-0.332,0.294 -0.692,0.776 -0.829,1.108l-0.243,0.587l-0.663,-0.59c-0.715,-0.635 -1.114,-1.393 -1.022,-1.936c0.031,-0.179 -0.059,-0.306 -0.216,-0.306c-0.141,0 -0.268,-0.205 -0.268,-0.434c0,-0.369 0.054,-0.357 0.358,0.076Zm0.433,-8.572c0.134,0 0.23,-0.166 0.23,-0.396c0,-0.229 0.107,-0.331 0.255,-0.242c0.145,0.087 0.255,0.408 0.255,0.74c0,0.44 -0.153,0.587 -0.612,0.587c-0.408,0 -0.57,-0.115 -0.485,-0.345c0.067,-0.178 0.238,-0.344 0.357,-0.344Zm1.952,20.666c0.74,-0.352 1.34,-0.775 1.34,-0.944c0,-0.536 0.584,-1.641 0.741,-1.403c0.082,0.124 0.649,0.539 1.236,0.905c0.587,0.366 1.084,0.794 1.084,0.932c0,0.137 0.153,0.255 0.332,0.255c0.181,0 0.587,0.238 0.893,0.523c0.306,0.285 0.567,0.43 0.574,0.319c0.007,-0.117 0.122,-0.013 0.268,0.242c0.146,0.255 0.359,0.387 0.497,0.306c0.139,-0.08 0.243,-0.025 0.243,0.128c0,0.156 0.127,0.268 0.306,0.268c0.171,0 0.548,0.231 0.855,0.523c0.306,0.292 0.785,0.54 1.084,0.561c0.306,0.022 0.487,0.115 0.421,0.217c-0.064,0.1 0.166,0.246 0.523,0.332c0.357,0.085 0.638,0.254 0.638,0.382c0,0.129 0.561,0.365 1.276,0.536c0.714,0.171 1.219,0.396 1.148,0.51c-0.068,0.109 0.165,0.175 0.497,0.141c0.357,-0.037 0.685,0.089 0.766,0.293c0.08,0.204 0.249,0.292 0.395,0.204c0.153,-0.092 0.255,-0.066 0.255,0.064c0,0.123 0.294,0.239 0.676,0.268c0.383,0.029 0.848,0.189 1.072,0.37c0.255,0.206 0.332,0.215 0.217,0.025c-0.137,-0.224 0,-0.228 0.586,-0.012c0.434,0.159 0.766,0.363 0.766,0.472c0,0.102 0.178,0.126 0.383,0.051c0.204,-0.075 0.543,-0.01 0.727,0.14c0.178,0.146 0.424,0.201 0.51,0.115c0.095,-0.095 0.166,-0.051 0.166,0.102c0,0.15 0.28,0.24 0.638,0.204c0.357,-0.036 0.638,0.015 0.638,0.115c0,0.1 0.357,0.265 0.816,0.377c0.944,0.23 1.195,0.304 1.281,0.378c0.039,0.034 0.301,0.096 0.581,0.138c0.283,0.042 1.047,0.185 1.71,0.319c0.663,0.134 1.262,0.185 1.339,0.114c0.079,-0.071 0.141,0.013 0.141,0.192c0,0.255 0.076,0.257 0.382,0.012c0.281,-0.224 0.383,-0.227 0.383,-0.012c0,0.158 0.153,0.263 0.332,0.227c0.459,-0.092 1.558,0.311 1.781,0.653c0.127,0.194 0.183,0.179 0.183,-0.051c0,-0.179 0.106,-0.267 0.23,-0.191c0.125,0.076 0.676,0.204 1.212,0.28c0.536,0.077 1.156,0.204 1.365,0.281c0.208,0.076 0.791,0.187 1.275,0.242c0.485,0.056 1.185,0.18 1.531,0.272c0.842,0.225 1.562,0.346 2.118,0.357c0.23,0.005 0.494,0.111 0.561,0.226c0.072,0.121 0.37,0.155 0.676,0.077c0.409,-0.105 0.497,-0.056 0.345,0.191c-0.159,0.258 -0.102,0.273 0.255,0.067c0.499,-0.288 1.301,-0.169 1.888,0.279c0.281,0.214 0.338,0.217 0.214,0.011c-0.195,-0.324 1.521,-0.349 2.031,-0.029c0.179,0.112 0.332,0.078 0.332,-0.073c0,-0.196 0.153,-0.196 0.51,0c0.281,0.154 0.51,0.177 0.51,0.051c0,-0.289 2.041,-0.241 2.526,0.059c0.23,0.143 0.298,0.126 0.192,-0.046c-0.107,-0.173 0.242,-0.254 0.982,-0.23c0.638,0.022 1.148,0.129 1.148,0.243c0,0.116 0.115,0.133 0.268,0.038c0.143,-0.088 0.446,-0.017 0.65,0.153c0.307,0.255 0.368,0.247 0.306,-0.038c-0.082,-0.381 0.383,-0.456 1.327,-0.215c0.357,0.092 0.919,0.085 1.276,-0.015c0.357,-0.1 0.896,-0.083 1.225,0.038c0.382,0.142 0.533,0.129 0.433,-0.038c-0.087,-0.146 0.077,-0.255 0.383,-0.255c0.306,0 0.47,-0.109 0.383,-0.255c-0.098,-0.164 0.076,-0.168 0.484,-0.013c0.46,0.175 0.667,0.157 0.74,-0.064c0.077,-0.229 0.23,-0.229 0.613,0c0.331,0.199 0.599,0.217 0.765,0.051c0.142,-0.141 0.727,-0.278 1.314,-0.306c0.587,-0.028 1.059,-0.108 1.059,-0.179c0,-0.072 0.332,-0.127 0.765,-0.127c0.434,0 0.766,0.088 0.766,0.204c0,0.111 0.191,0.013 0.421,-0.217c0.238,-0.238 0.676,-0.371 1.007,-0.306c0.332,0.065 0.621,0.026 0.664,-0.089c0.043,-0.115 0.357,-0.248 0.714,-0.303c1.021,-0.159 1.548,-0.455 1.372,-0.769c-0.12,-0.212 -0.071,-0.212 0.159,0c0.26,0.24 0.459,0.221 0.918,-0.089c0.332,-0.224 0.621,-0.385 0.664,-0.37c0.229,0.075 2.245,-0.864 2.245,-1.046c0,-0.123 0.102,-0.204 0.255,-0.204c0.262,0 0.561,-0.206 1.429,-0.984c0.204,-0.183 0.454,-0.272 0.536,-0.19c0.195,0.194 1.152,-1.352 0.994,-1.607c-0.071,-0.115 0.154,-0.176 0.511,-0.141c0.536,0.054 0.591,0.007 0.344,-0.293c-0.167,-0.204 -0.2,-0.357 -0.076,-0.357c0.121,0 0.489,-0.51 0.829,-1.148c0.34,-0.638 0.72,-1.148 0.855,-1.148c0.133,0 0.185,-0.23 0.115,-0.511c-0.071,-0.28 -0.036,-0.453 0.076,-0.382c0.116,0.072 0.341,-0.205 0.52,-0.638c0.325,-0.791 0.418,-0.862 0.506,-0.383c0.024,0.136 0.153,0.523 0.275,0.829c0.164,0.408 0.138,0.578 -0.089,0.587c-0.182,0.007 -0.127,0.122 0.128,0.268c0.255,0.146 0.386,0.359 0.306,0.497c-0.076,0.131 -0.045,0.396 0.066,0.575c0.302,0.485 0.309,1.795 0.012,2.168c-0.142,0.179 -0.17,0.306 -0.065,0.306c0.096,0 0.06,0.153 -0.078,0.332c-0.374,0.485 -0.591,1.241 -0.305,1.062c0.127,-0.079 0.35,0.29 0.498,0.826c0.312,1.123 0.352,1.935 0.089,1.78c-0.112,-0.067 -0.225,0.261 -0.25,0.72c-0.082,1.482 -1.944,4.605 -3.833,6.425c-0.306,0.295 -0.479,0.628 -0.382,0.732c0.094,0.101 -0.026,0.119 -0.255,0.038c-0.307,-0.108 -0.393,-0.044 -0.294,0.217c0.078,0.204 0.043,0.37 -0.076,0.37c-0.118,0 -0.817,0.559 -1.531,1.225c-0.714,0.666 -1.646,1.387 -2.041,1.581c-0.408,0.201 -0.951,0.55 -1.238,0.795c-0.451,0.387 -0.969,0.554 -2.653,0.852c-0.199,0.035 -0.554,0.305 -0.804,0.611c-0.249,0.307 -0.604,0.549 -0.803,0.549c-0.204,0 -0.467,0.109 -0.613,0.255c-0.408,0.408 -2.659,0.753 -2.67,0.408c-0.005,-0.16 -0.118,-0.089 -0.264,0.166c-0.145,0.255 -0.413,0.447 -0.625,0.447c-0.204,0 -0.37,0.103 -0.37,0.229c0,0.306 -1.511,0.512 -1.685,0.23c-0.076,-0.123 -0.228,-0.143 -0.381,-0.051c-0.143,0.086 -0.396,0.035 -0.574,-0.115c-0.229,-0.192 -0.511,-0.17 -0.995,0.077c-0.383,0.195 -0.743,0.278 -0.83,0.191c-0.081,-0.081 -0.075,0.051 0.013,0.281c0.125,0.325 0.013,0.444 -0.446,0.477c-1.072,0.077 -1.192,0.102 -1.378,0.288c-0.093,0.093 -0.345,0.044 -0.523,-0.102c-0.23,-0.187 -0.345,-0.195 -0.345,-0.026c0,0.311 -1.224,0.269 -1.76,-0.061c-0.23,-0.141 -0.302,-0.128 -0.204,0.036c0.098,0.163 -0.727,0.269 -2.284,0.293c-1.352,0.022 -2.538,0.101 -2.666,0.179c-0.123,0.076 -0.229,-0.013 -0.229,-0.191c0,-0.23 -0.059,-0.249 -0.192,-0.064c-0.106,0.149 -0.842,0.274 -1.658,0.28c-1.174,0.011 -1.469,-0.068 -1.48,-0.395c-0.011,-0.371 -0.029,-0.37 -0.191,0.013c-0.148,0.348 -0.574,0.421 -2.462,0.421c-1.251,0 -2.491,-0.11 -2.743,-0.243c-0.306,-0.161 -0.459,-0.148 -0.459,0.039c0,0.153 -0.122,0.205 -0.268,0.114c-0.151,-0.093 -0.625,-0.212 -1.085,-0.272c-1.917,-0.252 -2.704,-0.351 -4.771,-0.601c-1.403,-0.169 -2.272,-0.401 -2.462,-0.657c-0.189,-0.256 -0.352,-0.301 -0.459,-0.128c-0.095,0.153 -0.264,0.208 -0.395,0.128c-0.129,-0.079 -0.651,-0.191 -1.187,-0.256c-0.536,-0.064 -1.029,-0.232 -1.122,-0.382c-0.095,-0.153 -0.264,-0.252 -0.396,-0.23c-0.138,0.023 -0.28,0.018 -0.357,-0.013c-0.071,-0.028 -0.408,-0.088 -0.765,-0.135c-1.174,-0.154 -1.666,-0.314 -1.626,-0.528c0.024,-0.126 -0.25,-0.247 -0.607,-0.268c-0.357,-0.021 -0.725,-0.165 -0.816,-0.319c-0.088,-0.149 -0.459,-0.238 -0.791,-0.191c-0.332,0.047 -0.745,-0.001 -0.88,-0.102c-0.143,-0.107 -0.536,-0.231 -0.893,-0.281c-0.358,-0.05 -0.61,-0.224 -0.574,-0.395c0.038,-0.184 -0.09,-0.25 -0.319,-0.166c-0.204,0.075 -0.544,0.009 -0.727,-0.14c-0.179,-0.146 -0.425,-0.201 -0.511,-0.115c-0.099,0.099 -0.166,0.064 -0.166,-0.09c0,-0.136 -0.178,-0.273 -0.382,-0.293c-0.204,-0.02 -0.555,-0.056 -0.753,-0.077c-0.204,-0.02 -0.324,-0.118 -0.268,-0.216c0.057,-0.1 -0.344,-0.326 -0.906,-0.511c-0.561,-0.184 -1.007,-0.427 -1.007,-0.548c0,-0.13 -0.072,-0.206 -0.179,-0.19c-0.434,0.066 -0.831,-0.057 -1.148,-0.354c-0.181,-0.17 -0.88,-0.582 -1.544,-0.91c-0.663,-0.329 -1.148,-0.704 -1.071,-0.83c0.08,-0.131 -0.013,-0.169 -0.217,-0.089c-0.204,0.08 -0.51,-0.013 -0.714,-0.217c-0.202,-0.202 -0.613,-0.49 -0.944,-0.663c-0.332,-0.173 -0.509,-0.428 -0.409,-0.587c0.102,-0.16 0.026,-0.23 -0.178,-0.162c-0.485,0.162 -1.529,-0.941 -1.345,-1.42c0.143,-0.371 0.503,-0.499 1.319,-0.47c0.164,0.006 0.306,-0.168 0.306,-0.372c0,-0.255 0.141,-0.331 0.421,-0.229c0.358,0.13 0.373,0.095 0.102,-0.23c-0.262,-0.315 -0.242,-0.412 0.115,-0.549c0.357,-0.136 0.373,-0.204 0.09,-0.382c-0.267,-0.168 -0.256,-0.217 0.051,-0.217c0.22,0 0.83,-0.447 1.377,-1.008c0.548,-0.561 1.079,-0.951 1.199,-0.88c0.115,0.067 0.217,-0.077 0.217,-0.306c0,-0.23 0.066,-0.368 0.141,-0.294c0.077,0.077 0.561,-0.246 1.071,-0.714c0.689,-0.632 0.937,-1.074 0.951,-1.697c0.023,-1.046 -0.283,-1.408 -1.142,-1.354c-0.715,0.045 -2.041,0.826 -2.041,1.201c0,0.138 -0.102,0.169 -0.255,0.077c-0.139,-0.084 -0.256,-0.026 -0.256,0.127c0,0.149 -0.204,0.359 -0.433,0.446c-0.587,0.224 -1.358,1.003 -1.174,1.187c0.145,0.145 -0.332,0.262 -0.765,0.188c-0.123,-0.021 -0.148,0.052 -0.064,0.182c0.079,0.123 -0.077,0.412 -0.357,0.663c-0.281,0.253 -0.437,0.597 -0.357,0.791c0.101,0.25 -0.026,0.313 -0.46,0.23c-0.331,-0.064 -0.462,-0.052 -0.293,0.026c0.21,0.096 0.231,0.293 0.067,0.625c-0.553,1.122 -0.639,1.425 -0.561,1.964c0.049,0.332 0.191,0.587 0.328,0.587c0.136,0 0.242,0.14 0.242,0.319c0,0.178 -0.45,-0.166 -1.02,-0.778c-0.57,-0.613 -0.947,-1.221 -0.855,-1.378c0.091,-0.153 0.044,-0.205 -0.102,-0.115c-0.145,0.09 -0.601,-0.332 -0.995,-0.918c-0.393,-0.587 -0.873,-1.237 -1.046,-1.416c-0.174,-0.181 -0.313,-0.587 -0.306,-0.893c0.011,-0.485 0.046,-0.504 0.255,-0.141c0.19,0.33 0.434,0.377 1.123,0.217c0.484,-0.112 0.949,-0.135 1.033,-0.051c0.237,0.237 0.153,0.605 -0.102,0.448c-0.126,-0.078 -0.172,0.088 -0.102,0.369c0.07,0.28 0.248,0.435 0.395,0.344c0.163,-0.1 0.203,0 0.102,0.255c-0.141,0.358 -0.089,0.381 0.345,0.153c0.382,-0.201 0.516,-0.185 0.536,0.064c0.019,0.255 0.055,0.258 0.153,0.013c0.071,-0.179 0.223,-0.257 0.344,-0.179c0.116,0.075 0.424,-0.191 0.663,-0.574c0.245,-0.391 1.05,-1.327 1.778,-2.066c1.405,-1.429 1.535,-2.028 0.582,-2.696c-0.255,-0.179 -0.406,-0.419 -0.319,-0.506c0.09,-0.09 -0.14,-0.166 -0.497,-0.166c-0.536,0 -0.634,-0.086 -0.51,-0.447c0.087,-0.255 0.066,-0.364 -0.051,-0.255c-0.108,0.101 -0.398,-0.038 -0.613,-0.293c-0.381,-0.453 -0.472,-0.457 -1.365,-0.064c-0.535,0.236 -0.956,0.55 -0.956,0.714c0,0.16 -0.345,0.446 -0.753,0.625c-0.436,0.193 -0.946,0.74 -1.212,1.302c-0.254,0.535 -0.545,0.969 -0.651,0.969c-0.102,0 -0.191,0.179 -0.191,0.383c0,0.209 -0.191,0.383 -0.421,0.383c-0.229,0 -0.351,-0.076 -0.268,-0.166c0.085,-0.092 -0.013,-0.562 -0.217,-1.046c-0.203,-0.485 -0.37,-0.915 -0.37,-0.957c0,-0.042 0.294,-0.077 0.651,-0.077c0.357,0 0.91,-0.241 1.225,-0.535c0.306,-0.286 0.675,-0.447 0.791,-0.345c0.121,0.107 0.138,0.051 0.038,-0.127c-0.116,-0.207 0.14,-0.508 0.727,-0.855c0.51,-0.302 0.923,-0.669 0.946,-0.842c0.175,-1.327 0.091,-1.714 -0.448,-2.066c-0.511,-0.333 -0.637,-0.332 -0.97,0.012c-0.222,0.23 -0.436,0.4 -0.51,0.407c-0.587,0.054 -1.156,0.309 -1.055,0.473c0.06,0.097 -0.17,0.331 -0.502,0.511c-0.331,0.179 -0.577,0.401 -0.535,0.484c0.04,0.081 -0.141,0.383 -0.383,0.638c-0.449,0.474 -0.458,0.459 -0.408,-0.638c0.049,-1.09 0.089,-1.14 1.39,-1.76Zm-0.14,-3.968c0.071,-0.063 0.4,0.192 0.74,0.575c0.34,0.382 0.414,0.541 0.166,0.357c-0.256,-0.19 -0.447,-0.222 -0.447,-0.077c0,0.146 -0.153,0.316 -0.357,0.396c-0.257,0.101 -0.339,-0.039 -0.293,-0.498c0.035,-0.357 0.119,-0.688 0.191,-0.753Zm0.255,-34.089c0.179,-0.115 0.238,-0.215 0.128,-0.218c-0.262,-0.005 0.952,-2.164 1.618,-2.879c0.285,-0.306 0.499,-0.639 0.499,-0.778c0,-0.145 0.062,-0.181 0.153,-0.089c0.177,0.177 1.123,-0.791 1.123,-1.148c0,-0.114 0.281,-0.272 0.638,-0.357c0.357,-0.086 0.581,-0.249 0.51,-0.37c-0.07,-0.119 0.102,-0.286 0.383,-0.37c0.28,-0.084 0.447,-0.262 0.37,-0.396c-0.085,-0.145 -0.059,-0.22 0.063,-0.186c0.358,0.097 1.863,-0.814 1.863,-1.128c0,-0.153 0.07,-0.211 0.153,-0.127c0.087,0.087 0.408,-0.091 0.74,-0.408c0.319,-0.306 1.186,-0.911 1.901,-1.327c0.714,-0.416 1.558,-0.969 1.849,-1.212c0.307,-0.255 0.635,-0.447 0.766,-0.447c0.124,0 0.663,-0.339 1.173,-0.739c0.511,-0.4 1.179,-0.787 1.455,-0.842c0.331,-0.067 0.483,-0.276 0.433,-0.6c-0.051,-0.332 -0.006,-0.395 0.134,-0.191c0.245,0.358 0.887,0.305 1.397,-0.117c0.204,-0.169 0.461,-0.239 0.549,-0.151c0.087,0.087 0.166,0.025 0.166,-0.128c0,-0.157 0.242,-0.293 0.523,-0.293c0.331,0 0.457,-0.107 0.344,-0.294c-0.109,-0.178 -0.069,-0.228 0.102,-0.127c0.157,0.092 0.766,-0.009 1.378,-0.23c0.612,-0.22 1.3,-0.418 1.556,-0.446c0.255,-0.029 0.567,-0.221 0.702,-0.434c0.178,-0.281 0.242,-0.294 0.242,-0.051c0,0.179 0.095,0.274 0.204,0.206c0.275,-0.169 1.404,-0.387 2.807,-0.541c0.612,-0.068 1.308,-0.229 1.531,-0.354c0.249,-0.14 0.586,-0.135 0.867,0.013c0.255,0.135 0.459,0.14 0.459,0.013c0,-0.127 0.46,-0.213 1.021,-0.192c0.561,0.021 1.02,-0.024 1.02,-0.102c0,-0.077 1.008,-0.134 2.233,-0.127c1.225,0.007 2.486,-0.074 2.794,-0.179c0.357,-0.122 0.598,-0.08 0.663,0.115c0.082,0.245 0.166,0.247 0.421,0.013c0.234,-0.216 0.485,-0.219 0.944,-0.013c0.485,0.218 0.671,0.206 0.829,-0.051c0.141,-0.23 0.259,-0.249 0.383,-0.064c0.1,0.151 0.536,0.274 0.995,0.281c0.445,0.007 1.454,0.047 2.22,0.089c0.765,0.042 1.606,-0.022 1.849,-0.14c0.255,-0.124 0.447,-0.13 0.447,-0.013c0,0.112 1.084,0.198 2.411,0.191c1.352,-0.007 2.349,0.089 2.271,0.217c-0.074,0.121 0.089,0.103 0.344,-0.038c0.255,-0.141 0.63,-0.177 0.791,-0.077c0.167,0.105 0.855,0.221 1.518,0.255c0.663,0.035 1.27,0.151 1.339,0.256c0.073,0.108 0.46,0.175 0.893,0.155c0.995,-0.048 2.087,0.349 2.274,0.827c0.087,0.222 0.316,0.319 0.546,0.23c0.229,-0.089 0.336,-0.052 0.255,0.089c-0.078,0.135 0.37,0.543 1.008,0.918c0.637,0.376 1.148,0.778 1.148,0.906c0,0.133 0.166,0.23 0.395,0.23c0.255,0 0.328,0.113 0.204,0.319c-0.11,0.184 0.013,0.158 0.294,-0.064c0.28,-0.222 0.404,-0.248 0.293,-0.064c-0.107,0.179 -0.068,0.319 0.089,0.319c0.153,0 0.212,0.116 0.128,0.255c-0.079,0.133 0.013,0.188 0.191,0.115c0.188,-0.077 0.664,0.156 1.046,0.51c0.383,0.355 0.928,0.686 1.199,0.727c0.281,0.044 0.637,0.244 0.817,0.46c0.178,0.214 0.74,0.657 1.276,1.007c0.535,0.351 0.956,0.772 0.956,0.957c0,0.179 0.106,0.266 0.23,0.19c0.237,-0.146 1.468,1.622 1.36,1.953c-0.034,0.102 0.094,0.12 0.298,0.042c0.288,-0.11 0.791,0.571 0.667,0.902c-0.016,0.043 0.175,0.23 0.43,0.421c0.256,0.192 0.346,0.351 0.205,0.357c-0.179,0.009 -0.179,0.069 0,0.2c0.535,0.391 2.23,4.522 1.964,4.788c-0.071,0.072 -0.144,0.919 -0.166,1.914c-0.021,0.995 -0.173,1.922 -0.344,2.092c-0.165,0.165 -0.306,0.459 -0.306,0.638c0,0.293 -0.998,1.76 -2.203,3.24c-0.208,0.255 -0.527,0.397 -0.719,0.319c-0.246,-0.1 -0.304,0.013 -0.204,0.395c0.094,0.358 0.043,0.477 -0.153,0.358c-0.153,-0.094 -0.293,-0.039 -0.293,0.114c0,0.162 -0.166,0.231 -0.37,0.153c-0.23,-0.087 -0.322,-0.009 -0.243,0.205c0.075,0.201 -0.089,0.413 -0.395,0.51c-0.281,0.089 -0.523,0.278 -0.523,0.408c0,0.134 -0.166,0.242 -0.37,0.242c-0.202,0 -0.753,0.215 -1.212,0.472c-0.459,0.258 -0.987,0.42 -1.161,0.358c-0.178,-0.065 -0.319,0.025 -0.319,0.204c0,0.178 -0.073,0.246 -0.166,0.153c-0.094,-0.095 -0.318,0.025 -0.523,0.28c-0.204,0.256 -0.286,0.305 -0.191,0.115c0.204,-0.408 -0.191,-0.408 -0.599,0c-0.179,0.179 -0.307,0.227 -0.307,0.115c0,-0.102 -0.242,-0.061 -0.523,0.089c-0.28,0.151 -0.44,0.411 -0.344,0.562c0.124,0.194 0.076,0.217 -0.153,0.073c-0.536,-0.335 -1.509,-0.288 -1.655,0.08c-0.098,0.249 -0.259,0.262 -0.641,0.054c-0.498,-0.27 -0.63,-0.182 -0.529,0.354c0.024,0.124 -0.109,0.109 -0.288,-0.031c-0.32,-0.252 -0.714,-0.253 -2.424,-0.012c-0.459,0.065 -0.842,0.01 -0.842,-0.123c0,-0.129 -0.178,-0.099 -0.382,0.064c-0.306,0.245 -0.383,0.237 -0.383,-0.038c0,-0.255 -0.053,-0.262 -0.204,-0.026c-0.129,0.202 -0.766,0.309 -1.735,0.292c-2.271,-0.041 -4.523,0.138 -4.924,0.39c-0.23,0.144 -0.303,0.137 -0.204,-0.018c0.091,-0.145 -0.995,-0.25 -2.705,-0.26c-3.316,-0.02 -5.735,-0.189 -5.952,-0.417c-0.077,-0.081 -0.439,-0.039 -0.771,0.09c-0.331,0.129 -0.573,0.158 -0.514,0.064c0.142,-0.23 -2.05,-0.254 -2.279,-0.025c-0.098,0.097 -0.306,0.096 -0.46,-0.001c-0.155,-0.099 -0.79,-0.195 -1.428,-0.217c-0.638,-0.021 -1.148,-0.062 -1.148,-0.092c0,-0.056 -1.378,-0.234 -2.501,-0.323c-0.382,-0.03 -0.827,-0.234 -0.956,-0.44c-0.214,-0.337 -0.243,-0.331 -0.247,0.051c-0.004,0.484 -1.006,0.332 -1.013,-0.153c-0.002,-0.154 -0.106,-0.114 -0.233,0.09c-0.184,0.296 -0.306,0.306 -0.612,0.051c-0.23,-0.192 -0.419,-0.222 -0.472,-0.077c-0.049,0.133 -0.409,0.185 -0.791,0.115c-0.383,-0.069 -0.632,-0.243 -0.549,-0.383c0.097,-0.161 -0.025,-0.156 -0.332,0.013c-0.255,0.141 -0.635,0.171 -0.803,0.064c-0.172,-0.11 -0.625,-0.145 -0.982,-0.077c-0.409,0.079 -0.605,0.03 -0.511,-0.127c0.085,-0.141 -0.012,-0.255 -0.217,-0.255c-0.204,0 -0.37,0.068 -0.37,0.153c0,0.221 -1.199,0.178 -1.428,-0.051c-0.097,-0.097 -0.396,-0.179 -0.651,-0.179c-0.255,0 -0.472,-0.105 -0.472,-0.23c0,-0.128 -0.242,-0.167 -0.548,-0.089c-0.358,0.092 -0.491,0.043 -0.383,-0.14c0.116,-0.197 -0.064,-0.212 -0.6,-0.051c-0.51,0.153 -0.765,0.14 -0.765,-0.039c0,-0.147 -0.166,-0.204 -0.37,-0.127c-0.204,0.077 -0.438,0.032 -0.523,-0.102c-0.092,-0.145 -0.245,-0.192 -0.383,-0.115c-0.131,0.073 -0.339,-0.064 -0.485,-0.319c-0.145,-0.255 -0.258,-0.315 -0.263,-0.14c-0.01,0.378 -1.029,0.102 -1.034,-0.281c-0.002,-0.16 -0.102,-0.127 -0.233,0.077c-0.148,0.229 -0.348,0.281 -0.562,0.144c-0.347,-0.223 -0.51,-0.269 -1.76,-0.497c-0.612,-0.111 -1.624,-0.342 -2.169,-0.494c-0.143,-0.04 -0.574,-0.2 -0.982,-0.365c-0.408,-0.165 -0.845,-0.221 -0.995,-0.128c-0.153,0.095 -0.197,0.051 -0.102,-0.102c0.091,-0.146 -0.447,-0.657 -1.187,-1.127c-1.301,-0.826 -2.985,-2.429 -2.985,-2.84c0,-0.107 -0.14,-0.119 -0.293,-0.026c-0.179,0.109 -0.224,0.069 -0.115,-0.102c0.099,-0.155 -0.047,-0.714 -0.326,-1.25c-0.571,-1.097 -0.559,-3.318 0.02,-3.69Zm1.11,30.148c0.199,0 0.612,-0.243 0.893,-0.523c0.492,-0.493 0.561,-0.499 1.173,-0.115c0.383,0.24 0.593,0.561 0.511,0.778c-0.088,0.231 0.012,0.37 0.268,0.37c0.229,0 0.347,0.067 0.268,0.153c-0.079,0.086 0.01,0.51 0.204,0.97c0.312,0.739 0.3,0.844 -0.128,1.109c-0.382,0.238 -0.574,0.197 -1.008,-0.216c-0.306,-0.292 -0.536,-0.434 -0.536,-0.332c0,0.098 -0.229,-0.028 -0.51,-0.281c-0.28,-0.252 -0.453,-0.551 -0.383,-0.663c0.071,-0.112 -0.102,-0.273 -0.382,-0.357c-0.281,-0.085 -0.51,-0.268 -0.51,-0.409c0,-0.133 -0.141,-0.169 -0.294,-0.076c-0.178,0.109 -0.223,0.064 -0.115,-0.115c0.099,-0.162 0.345,-0.293 0.549,-0.293Zm0.752,-9.197c0.205,0.17 0.389,0.217 0.396,0.101c0.007,-0.122 0.174,0 0.383,0.281c0.208,0.28 0.37,0.403 0.37,0.28c0,-0.12 0.284,0.09 0.64,0.472c0.854,0.919 0.852,1.902 -0.003,1.243c-0.136,-0.105 -0.076,-0.018 0.128,0.186c0.212,0.212 0.411,0.753 0.447,1.212c0.058,0.765 0.024,0.805 -0.447,0.51c-0.281,-0.175 -0.453,-0.468 -0.383,-0.65c0.069,-0.179 0.01,-0.261 -0.127,-0.179c-0.137,0.082 -0.403,-0.178 -0.574,-0.561c-0.171,-0.383 -0.414,-0.786 -0.523,-0.868c-0.113,-0.084 -0.262,-0.484 -0.332,-0.893c-0.07,-0.408 -0.173,-0.785 -0.23,-0.842c-0.305,-0.305 -0.076,-0.568 0.255,-0.292Zm4.848,-6.941c0.379,-0.612 0.384,-0.701 0.038,-0.701c-0.229,0 -0.47,-0.123 -0.574,-0.294c-0.129,-0.212 0.026,-0.24 0.562,-0.102c0.408,0.106 1.025,0.245 1.377,0.311c0.766,0.144 1.016,0.34 0.434,0.34c-0.23,0 -0.434,0.126 -0.434,0.268c0,0.153 -0.109,0.2 -0.255,0.11c-0.331,-0.204 -1.344,0.821 -1.137,1.153c0.29,0.467 -0.138,0.765 -0.649,0.451c-0.382,-0.235 -0.412,-0.355 -0.14,-0.566c0.188,-0.146 0.542,-0.587 0.778,-0.97Zm0.778,20.054c0.179,0.164 0.318,0.35 0.316,0.421c-0.017,0.587 0.133,0.732 0.641,0.624c1.582,-0.337 2.184,-0.333 2.468,0.014c0.172,0.21 0.543,0.383 0.823,0.383c0.383,0 0.469,0.111 0.345,0.446c-0.123,0.332 -0.094,0.375 0.115,0.166c0.405,-0.406 1.275,-0.128 1.275,0.408c0,0.255 -0.124,0.505 -0.28,0.561c-0.153,0.056 -0.293,0.511 -0.307,0.995l-0.025,0.893l-0.842,-0.382c-0.459,-0.209 -0.854,-0.563 -0.868,-0.778c-0.016,-0.256 -0.07,-0.283 -0.153,-0.077c-0.092,0.231 -0.331,0.175 -0.867,-0.204c-0.408,-0.289 -0.74,-0.432 -0.74,-0.319c0,0.117 -0.082,0.089 -0.191,-0.064c-0.106,-0.148 -0.562,-0.53 -1.021,-0.855c-0.485,-0.342 -0.76,-0.708 -0.663,-0.88c0.086,-0.153 0.068,-0.208 -0.039,-0.115c-0.109,0.096 -0.535,-0.016 -0.918,-0.242l-0.714,-0.421l0.663,-0.434c0.51,-0.333 0.737,-0.366 0.982,-0.14Zm0.625,-11.06c0.224,0.335 0.255,0.332 0.255,-0.026c0,-0.229 0.14,-0.413 0.319,-0.421c0.181,-0.007 0.651,-0.084 1.085,-0.178c0.433,-0.094 0.931,-0.188 1.148,-0.217c0.204,-0.027 0.543,-0.2 0.727,-0.37c0.179,-0.165 0.455,-0.251 0.574,-0.179c0.138,0.085 0.23,0.059 0.23,-0.063c0,-0.173 0.842,-0.206 2.602,-0.104c0.255,0.015 0.459,0.209 0.459,0.435c0,0.36 -0.051,0.368 -0.433,0.064c-0.23,-0.182 -0.35,-0.206 -0.256,-0.051c0.108,0.176 -0.127,0.431 -0.586,0.638c-0.434,0.195 -0.766,0.427 -0.766,0.536c0,0.114 -0.087,0.165 -0.217,0.127c-0.121,-0.035 -0.803,0.439 -1.543,1.072c-0.944,0.808 -1.231,1.194 -0.995,1.339c0.26,0.161 0.255,0.205 -0.026,0.207c-0.471,0.004 -2.811,-2.324 -2.823,-2.809c-0.008,-0.332 0.025,-0.332 0.246,0Zm2.016,6.595c0.117,0.183 0.357,0.347 0.561,0.383c0.204,0.036 0.5,0.151 0.689,0.268c0.179,0.11 0.402,0.139 0.485,0.063c0.087,-0.08 0.383,-0.014 0.689,0.154c0.306,0.167 0.618,0.31 0.727,0.331c0.115,0.023 0.242,0.064 0.319,0.102c0.076,0.039 0.219,0.079 0.357,0.102c0.138,0.023 0.306,0.115 0.421,0.23c0.103,0.104 0.408,0.191 0.663,0.191c0.255,0 0.472,0.124 0.472,0.268c0,0.153 0.115,0.197 0.268,0.102c0.142,-0.087 0.472,-0.076 0.702,0.026c0.238,0.105 0.663,0.231 0.944,0.28c0.28,0.05 0.74,0.13 1.02,0.179c0.28,0.049 0.868,0.009 1.302,-0.089c0.433,-0.098 0.981,-0.075 1.211,0.051c0.256,0.139 0.421,0.139 0.421,0c0,-0.315 0.845,-0.255 1.089,0.076c0.119,0.163 0.187,0.153 0.187,-0.025c0,-0.153 0.408,-0.281 0.893,-0.281c0.485,0 0.893,0.111 0.893,0.243c0,0.138 0.153,0.116 0.357,-0.051c0.23,-0.189 0.412,-0.207 0.51,-0.052c0.096,0.152 0.447,0.099 0.932,-0.14c0.433,-0.213 0.936,-0.32 1.135,-0.242c0.204,0.08 0.39,0.064 0.434,-0.039c0.042,-0.098 0.765,-0.448 1.607,-0.778c0.842,-0.329 1.973,-0.817 2.513,-1.084c0.536,-0.264 1.145,-0.485 1.34,-0.485c0.204,0 0.357,-0.109 0.357,-0.255c0,-0.146 0.153,-0.255 0.357,-0.255c0.204,0 0.396,-0.115 0.447,-0.268c0.048,-0.146 0.344,-0.285 0.65,-0.306c0.306,-0.021 0.556,-0.096 0.549,-0.166c-0.059,-0.587 0.085,-0.825 0.421,-0.694c0.229,0.089 0.347,0.052 0.268,-0.084c-0.085,-0.146 -0.044,-0.304 0.102,-0.396c0.136,-0.086 0.175,-0.331 0.089,-0.561c-0.096,-0.255 -0.053,-0.346 0.115,-0.242c0.15,0.093 0.318,0.025 0.382,-0.153c0.09,-0.247 0.205,-0.244 0.511,0.012c0.217,0.183 0.625,0.372 0.905,0.421c0.282,0.05 1.072,0.318 1.761,0.597c2.347,0.954 3.012,1.188 3.215,1.131c0.106,-0.029 0.119,0.084 0.025,0.237c-0.124,0.205 -0.013,0.251 0.37,0.153c0.357,-0.091 0.491,-0.047 0.383,0.128c-0.104,0.168 0,0.206 0.28,0.102c0.332,-0.123 0.411,-0.068 0.307,0.217c-0.075,0.204 -0.034,0.382 0.089,0.382c0.314,0 0.171,0.638 -0.265,1.174c-0.207,0.255 -0.248,0.384 -0.092,0.29c0.398,-0.239 0.66,1.088 0.3,1.521c-0.216,0.262 -0.185,0.3 0.146,0.179c0.281,-0.102 0.421,-0.021 0.421,0.242c0,0.23 0.107,0.46 0.255,0.549c0.153,0.092 0.242,0.071 0.222,-0.051c-0.091,-0.561 0.064,-0.814 0.416,-0.681c0.239,0.091 0.383,-0.008 0.383,-0.263c0,-0.23 0.084,-0.397 0.191,-0.383c0.102,0.014 0.37,0.014 0.574,0c0.332,-0.022 0.332,-0.059 0,-0.281c-0.334,-0.223 -0.331,-0.255 0.026,-0.255c0.229,0 0.417,-0.145 0.428,-0.331c0.074,-1.199 0.715,-2.191 1.434,-2.219c0.46,-0.018 3.347,-1.614 3.739,-2.068c0.221,-0.255 0.499,-0.406 0.586,-0.319c0.088,0.088 0.166,-0.038 0.166,-0.267c0,-0.23 0.12,-0.362 0.255,-0.281c0.137,0.082 0.257,0 0.259,-0.179c0.006,-0.541 0.497,0.357 0.502,0.919c0.002,0.254 0.438,0.876 0.974,1.39c0.536,0.515 1.125,1.24 1.318,1.62c0.388,0.766 1.185,0.942 1.794,0.397c0.286,-0.256 0.284,-0.218 -0.011,0.19c-0.59,0.817 -0.948,1.148 -1.239,1.148c-0.153,0 -0.28,0.093 -0.28,0.204c0,0.332 -1.517,1.11 -1.812,0.929c-0.178,-0.11 -0.237,-0.077 -0.14,0.079c0.091,0.148 -0.064,0.328 -0.345,0.402c-0.51,0.133 -0.708,-0.185 -0.28,-0.45c0.123,-0.077 0.207,-0.296 0.18,-0.475c-0.068,-0.459 -3.014,-3.241 -3.267,-3.085c-0.117,0.072 -0.205,-0.027 -0.205,-0.232c0.001,-0.62 -1.768,0.077 -1.941,0.766c-0.174,0.689 0.554,1.963 0.972,1.704c0.179,-0.11 0.218,-0.071 0.108,0.107c-0.186,0.302 0.3,1.222 0.683,1.294c0.107,0.02 0.153,0.079 0.115,0.148c-0.035,0.063 0.166,0.298 0.446,0.523c0.499,0.399 0.498,0.406 -0.064,0.293c-0.306,-0.061 -0.508,-0.007 -0.433,0.115c0.078,0.128 -0.064,0.241 -0.319,0.255c-0.255,0.014 -0.629,0.043 -0.842,0.064c-0.204,0.021 -0.472,-0.081 -0.574,-0.217c-0.128,-0.17 -0.192,-0.153 -0.194,0.051c-0.004,0.372 -1.58,0.153 -1.842,-0.255c-0.131,-0.204 -0.198,-0.213 -0.2,-0.026c-0.005,0.365 -2.012,0.184 -2.523,-0.227c-0.306,-0.247 -0.336,-0.232 -0.153,0.074c0.193,0.322 0.166,0.332 -0.166,0.064c-0.229,-0.185 -0.464,-0.249 -0.561,-0.153c-0.09,0.091 -0.166,0.038 -0.166,-0.115c0,-0.149 -0.178,-0.215 -0.382,-0.14c-0.204,0.075 -0.383,0.015 -0.383,-0.128c0,-0.143 -0.242,-0.344 -0.523,-0.433c-0.306,-0.097 -0.47,-0.309 -0.396,-0.511c0.08,-0.213 -0.012,-0.291 -0.242,-0.204c-0.229,0.087 -0.492,-0.127 -0.689,-0.561c-0.243,-0.536 -0.246,-0.726 -0.013,-0.804c0.17,-0.056 0.244,-0.268 0.166,-0.472c-0.087,-0.231 0.013,-0.37 0.268,-0.37c0.33,0 0.355,-0.114 0.128,-0.599c-0.237,-0.506 -0.447,-0.59 -1.34,-0.536c-0.587,0.035 -1.343,0.144 -1.696,0.242c-0.358,0.1 -0.779,0.185 -0.957,0.192c-0.179,0.007 -0.319,0.085 -0.319,0.178c0,0.092 -0.6,0.321 -1.339,0.511c-0.74,0.19 -1.471,0.447 -1.633,0.574c-0.159,0.124 -0.511,0.27 -0.766,0.319c-0.254,0.048 -0.931,0.287 -1.467,0.519c-0.968,0.418 -1.224,0.492 -2.653,0.764c-0.306,0.059 -0.706,0.194 -0.88,0.298c-0.17,0.103 -0.498,0.224 -0.702,0.262c-2.73,0.499 -4.082,0.577 -4.082,0.236c0,-0.179 -0.065,-0.188 -0.18,-0.026c-0.179,0.256 -6.453,0.38 -6.453,0.128c-0.001,-0.109 -0.817,-0.184 -2.858,-0.263c-0.255,-0.01 -0.46,-0.12 -0.46,-0.247c0,-0.125 -0.191,-0.16 -0.421,-0.077c-0.28,0.102 -0.361,0.056 -0.242,-0.14c0.115,-0.189 0.038,-0.239 -0.217,-0.14c-0.227,0.088 -0.829,-0.194 -1.416,-0.664c-0.561,-0.449 -1.02,-0.736 -1.02,-0.638c0,0.099 -0.217,-0.089 -0.485,-0.421c-0.268,-0.331 -0.433,-0.65 -0.37,-0.714c0.065,-0.064 0.205,0.026 0.319,0.204Zm2.704,-3.72c0.485,-0.314 0.952,-0.579 1.021,-0.579c0.07,0 0.357,-0.23 0.638,-0.51c0.28,-0.281 0.682,-0.51 0.893,-0.51c0.204,0 0.382,-0.119 0.382,-0.256c0,-0.139 0.192,-0.255 0.421,-0.255c0.23,0 0.352,-0.069 0.268,-0.153c-0.085,-0.086 -0.023,-0.293 0.141,-0.472c0.239,-0.26 0.357,-0.257 0.637,0.013c0.179,0.172 0.333,0.411 0.319,0.497c-0.013,0.091 0.23,0.387 0.536,0.651c0.306,0.265 0.434,0.485 0.281,0.485c-0.155,0 -0.424,0.395 -0.6,0.88c-0.175,0.485 -0.422,0.817 -0.548,0.74c-0.129,-0.079 0.039,0.281 0.382,0.816c0.376,0.587 0.825,0.977 1.161,1.008c0.306,0.029 0.493,-0.039 0.423,-0.153c-0.124,-0.199 0.304,-0.315 1.07,-0.29c0.165,0.005 0.25,-0.144 0.184,-0.322c-0.197,-0.536 0.32,-0.658 0.836,-0.197c0.536,0.477 0.536,0.477 2.169,0.704c0.612,0.085 1.355,0.191 1.633,0.233c0.272,0.04 0.778,-0.096 1.084,-0.294c0.306,-0.197 0.574,-0.292 0.574,-0.204c0,0.093 0.141,0.082 0.319,-0.025c0.176,-0.106 0.549,-0.232 0.829,-0.281c0.281,-0.049 0.551,-0.204 0.6,-0.344c0.057,-0.164 0.217,-0.151 0.446,0.038c0.256,0.209 0.358,0.213 0.358,0.013c0,-0.163 0.165,-0.281 0.395,-0.281c0.23,0 0.321,-0.123 0.217,-0.294c-0.104,-0.17 -0.051,-0.214 0.128,-0.104c0.433,0.267 1.341,-0.09 1.128,-0.444c-0.119,-0.198 -0.044,-0.193 0.211,0.013c0.23,0.185 0.561,0.26 0.791,0.178c0.23,-0.081 0.465,-0.028 0.561,0.128c0.095,0.153 0.079,0.255 -0.038,0.238c-0.408,-0.061 -1.352,0.352 -1.352,0.591c0,0.138 -0.102,0.168 -0.255,0.077c-0.154,-0.092 -0.256,-0.067 -0.256,0.063c0,0.122 -0.242,0.234 -0.548,0.256c-0.306,0.021 -0.615,0.128 -0.699,0.242c-0.163,0.22 -0.717,0.39 -1.304,0.401c-0.204,0.004 -0.45,0.114 -0.527,0.237c-0.16,0.253 -2.917,0.476 -6.157,0.496c-1.506,0.009 -2.246,0.111 -2.246,0.307c0,0.179 -0.074,0.194 -0.191,0.039c-0.216,-0.288 -0.549,-0.386 -1.722,-0.508c-0.426,-0.044 -1.416,-0.373 -2.233,-0.742c-0.816,-0.37 -1.467,-0.602 -1.467,-0.524c0,0.075 -0.268,-0.008 -0.574,-0.178c-0.306,-0.17 -0.728,-0.287 -0.905,-0.251c-0.653,0.134 -0.281,-0.61 0.586,-1.173Zm1.493,12.854c-0.088,-0.088 0.013,-0.166 0.217,-0.166c0.459,0 1.48,-0.844 1.48,-1.225c0,-0.305 2.328,0.409 2.579,0.791c0.09,0.138 0.191,0.205 0.253,0.166c0.055,-0.034 0.714,0.081 1.454,0.255c1.327,0.313 1.341,0.327 0.765,0.728c-0.331,0.23 -0.675,0.552 -0.791,0.739c-0.109,0.179 -0.345,0.25 -0.51,0.154c-0.185,-0.109 -0.17,-0.013 0.038,0.242c0.188,0.23 0.264,0.548 0.167,0.702c-0.218,0.344 -1.098,0.205 -3.037,-0.48c-0.842,-0.298 -1.571,-0.541 -1.62,-0.541c-0.05,0 -0.005,-0.14 0.102,-0.319c0.148,-0.247 0.102,-0.247 -0.204,0c-0.332,0.268 -0.447,0.257 -0.715,-0.064c-0.169,-0.204 -0.455,-0.317 -0.612,-0.242c-0.167,0.08 -0.102,-0.013 0.153,-0.217c0.255,-0.204 0.376,-0.428 0.281,-0.523Zm1.684,-17.005c0.145,0 0.293,0.087 0.37,0.217c0.07,0.12 -0.039,0.217 -0.243,0.217c-0.204,0 -0.37,-0.097 -0.37,-0.217c0,-0.13 0.098,-0.217 0.243,-0.217Zm5.396,19.773c0.204,0 0.445,-0.136 0.561,-0.319c0.115,-0.178 0.311,-0.257 0.447,-0.178c0.138,0.08 0.242,0.025 0.242,-0.128c0,-0.153 0.088,-0.253 0.204,-0.234c0.51,0.085 0.842,-0.055 0.805,-0.34c-0.082,-0.638 0.029,-0.994 0.267,-0.852c0.138,0.083 0.291,0.041 0.382,-0.105c0.085,-0.133 0.319,-0.179 0.523,-0.102c0.205,0.078 0.325,0.215 0.268,0.306c-0.057,0.094 0.192,0.183 0.574,0.205c0.384,0.021 1.008,0.096 1.442,0.172c2.194,0.386 3.073,0.515 3.24,0.475c0.123,-0.029 0.204,0.039 0.204,0.169c0,0.121 0.281,0.166 0.638,0.102c0.357,-0.064 0.638,-0.014 0.638,0.115c0,0.127 0.37,0.212 0.829,0.191c0.459,-0.021 0.943,0.025 1.084,0.102c0.137,0.075 0.434,0.165 0.638,0.192c0.211,0.028 0.842,0.137 1.404,0.242c0.561,0.105 1.164,0.191 1.339,0.191c0.179,0 0.319,0.045 0.319,0.102c0,0.143 -0.612,0.753 -0.765,0.762c-0.409,0.025 -1.256,0.396 -1.235,0.54c0.074,0.51 -0.062,0.826 -0.296,0.687c-0.136,-0.081 -0.255,0.027 -0.255,0.231c0,0.447 -0.893,0.791 -1.786,0.689c-0.919,-0.104 -1.056,-0.253 -0.756,-0.817c0.149,-0.28 0.38,-0.441 0.513,-0.357c0.133,0.084 0.243,0.026 0.243,-0.127c0,-0.153 0.116,-0.211 0.255,-0.128c0.148,0.089 0.255,-0.013 0.255,-0.242c0,-0.23 0.134,-0.396 0.319,-0.396c0.179,0 -0.038,-0.178 -0.498,-0.408c-1.049,-0.525 -1.76,-0.34 -2.985,0.777c-0.536,0.488 -1.124,0.907 -1.275,0.907c-0.158,0 0,-0.254 0.357,-0.577c0.663,-0.6 1.503,-1.901 1.046,-1.62c-0.134,0.082 -0.328,-0.074 -0.408,-0.329c-0.212,-0.67 -1.505,-0.478 -2.399,0.355c-1.403,1.309 -1.908,1.674 -2.046,1.482c-0.08,-0.11 -0.454,-0.215 -0.811,-0.227c-1.174,-0.043 -4.072,-0.937 -3.973,-1.227c0.054,-0.16 0.248,-0.281 0.452,-0.281Zm6.697,-5.817c0.153,0.097 0.177,-0.025 0.064,-0.332c-0.141,-0.382 -0.114,-0.42 0.128,-0.178c0.235,0.235 0.535,0.188 1.301,-0.204c0.536,-0.275 1.136,-0.463 1.301,-0.408c0.168,0.056 0.536,-0.021 0.816,-0.171c0.562,-0.3 1.269,-0.46 1.046,-0.238c-0.196,0.197 0.587,1.608 0.893,1.608c0.154,0 0.199,0.091 0.115,0.229c-0.081,0.134 0.026,0.294 0.255,0.383c0.23,0.089 0.321,0.276 0.217,0.446c-0.108,0.179 -0.073,0.229 0.09,0.128c0.143,-0.089 0.599,0.101 0.982,0.408c0.383,0.308 0.626,0.432 0.524,0.268c-0.291,-0.467 -0.08,-0.383 0.382,0.153c0.374,0.435 0.357,0.458 -0.332,0.434c-0.408,-0.014 -0.727,-0.087 -0.727,-0.166c0,-0.078 -0.281,-0.161 -0.638,-0.188c-1.148,-0.086 -1.403,-0.138 -1.403,-0.284c0,-0.083 -0.255,-0.161 -0.562,-0.172c-1.122,-0.037 -2.879,-0.396 -3.189,-0.651c-0.229,-0.19 -0.332,-0.184 -0.332,0.019c0,0.165 -0.14,0.204 -0.318,0.09c-0.176,-0.113 -0.549,-0.21 -0.83,-0.217c-0.28,-0.007 -0.481,-0.145 -0.446,-0.306c0.045,-0.209 -0.102,-0.235 -0.51,-0.09c-0.307,0.109 -0.747,0.145 -0.944,0.077c-0.21,-0.073 0.114,-0.271 0.752,-0.459c0.613,-0.181 1.233,-0.262 1.365,-0.179Zm-0.242,30.243c0.612,-0.278 0.918,-0.196 0.918,0.246c0,0.12 -0.14,0.144 -0.293,0.051c-0.19,-0.115 -0.237,-0.026 -0.135,0.255c0.162,0.442 -0.031,0.513 -0.694,0.253c-0.575,-0.225 -0.511,-0.48 0.204,-0.805Zm7.782,1.101c0.126,-0.077 0.169,0.089 0.096,0.37c-0.153,0.586 -0.326,0.654 -0.326,0.127c0,-0.204 0.098,-0.417 0.23,-0.497Zm-0.052,-34.245c0.085,0.08 0.485,-0.026 0.893,-0.237c0.409,-0.211 0.866,-0.303 1.021,-0.204c0.179,0.114 0.217,0.076 0.105,-0.102c-0.378,-0.603 0.188,-0.281 0.896,0.51c0.389,0.434 0.639,0.906 0.555,1.046c-0.083,0.139 -0.025,0.18 0.128,0.089c0.157,-0.092 0.663,0.217 1.148,0.702c0.485,0.485 1.11,0.941 1.416,1.033c0.306,0.093 0.475,0.29 0.383,0.447c-0.097,0.164 -0.039,0.201 0.14,0.089c0.167,-0.104 0.498,-0.035 0.727,0.153c0.357,0.293 0.388,0.291 0.204,-0.013c-0.155,-0.255 -0.115,-0.293 0.141,-0.134c0.506,0.317 0.995,0.426 2.066,0.461c0.536,0.017 0.97,0.088 0.97,0.158c0,0.072 0.357,0.145 0.816,0.166c0.459,0.022 0.861,0.167 0.919,0.332c0.068,0.195 0.204,0.208 0.408,0.038c0.17,-0.142 1.225,-0.289 2.373,-0.332c1.148,-0.042 2.015,-0.161 1.951,-0.268c-0.061,-0.102 0.064,-0.207 0.268,-0.224c0.434,-0.038 0.872,-0.133 0.97,-0.212c0.042,-0.034 0.408,-0.112 0.816,-0.176c0.403,-0.062 1.276,-0.4 1.914,-0.74c0.638,-0.339 1.325,-0.625 1.505,-0.625c0.179,0 0.261,-0.118 0.179,-0.255c-0.085,-0.142 0.051,-0.329 0.306,-0.421c0.252,-0.091 1.03,-0.753 1.724,-1.467c1.389,-1.429 1.389,-1.429 1.588,-2.194c0.072,-0.281 0.322,-0.522 0.553,-0.536c0.255,-0.015 0.301,-0.071 0.115,-0.14c-0.226,-0.085 -0.206,-0.268 0.076,-0.702c0.566,-0.867 0.665,-1.684 0.205,-1.684c-0.204,0 -0.306,-0.131 -0.217,-0.28c0.087,-0.148 0.395,-0.221 0.65,-0.154c0.255,0.068 0.485,0.007 0.485,-0.127c0,-0.153 0.153,-0.133 0.383,0.051c0.204,0.163 0.383,0.187 0.383,0.051c0,-0.141 0.267,-0.255 0.599,-0.255l0.6,0l-0.472,0.982c-0.258,0.536 -0.472,1.104 -0.472,1.25c0,0.14 -0.141,0.268 -0.294,0.268c-0.153,0 -0.22,0.073 -0.14,0.153c0.165,0.166 -1.123,2.179 -1.863,2.912c-0.208,0.207 -0.545,0.698 -0.739,1.081c-0.195,0.383 -0.531,0.702 -0.74,0.702c-0.204,0 -0.312,0.071 -0.23,0.153c0.446,0.446 -3.623,2.857 -4.21,2.495c-0.153,-0.095 -0.208,-0.057 -0.121,0.082c0.155,0.248 -0.491,0.479 -2.124,0.758c-0.357,0.061 -0.694,0.188 -0.765,0.288c-0.073,0.102 -0.281,0.211 -0.485,0.254c-0.74,0.157 -5.901,0.223 -6.047,0.077c-0.083,-0.083 -0.561,-0.17 -1.046,-0.191c-0.485,-0.021 -0.969,-0.137 -1.059,-0.255c-0.091,-0.119 -0.395,-0.235 -0.676,-0.258c-0.918,-0.072 -2.023,-0.378 -2.347,-0.648c-0.179,-0.149 -0.412,-0.191 -0.561,-0.102c-0.153,0.092 -0.317,0.051 -0.409,-0.102c-0.091,-0.153 -0.239,-0.204 -0.37,-0.128c-0.115,0.069 -0.359,-0.051 -0.523,-0.255c-0.163,-0.204 -0.425,-0.309 -0.561,-0.225c-0.301,0.186 -1.735,-0.387 -1.735,-0.693c0,-0.109 -0.178,-0.139 -0.382,-0.064c-0.205,0.075 -0.383,0.01 -0.383,-0.14c0,-0.153 -0.122,-0.252 -0.268,-0.217c-0.147,0.035 -0.542,-0.396 -0.878,-0.957c-0.626,-1.046 -0.755,-1.345 -0.462,-1.064Zm1.863,11.691c0,-0.154 0.128,-0.294 0.268,-0.294c0.153,0 0.213,-0.093 0.14,-0.217c-0.067,-0.114 0.043,-0.446 0.232,-0.701c0.492,-0.664 0.466,-1.073 -0.079,-1.229c-0.241,-0.068 0.357,-0.084 1.352,-0.034c0.996,0.049 2.159,0.1 2.628,0.115l0.842,0.025l-0.446,0.753c-0.242,0.408 -0.528,0.7 -0.625,0.638c-0.101,-0.066 -0.422,0.216 -0.74,0.65c-0.318,0.434 -0.678,0.694 -0.829,0.6c-0.146,-0.091 -0.188,-0.039 -0.093,0.115c0.312,0.498 -0.813,1.048 -1.655,0.808c-0.867,-0.247 -0.867,-0.247 -1.454,-0.262c-0.422,-0.01 -0.421,-0.02 0.012,-0.342c0.256,-0.19 0.447,-0.458 0.447,-0.625Zm1.811,23.179c0.154,0 0.194,-0.102 0.102,-0.255c-0.083,-0.14 0.039,-0.256 0.268,-0.256c0.313,0 0.375,0.115 0.243,0.447c-0.101,0.252 -0.24,0.663 -0.319,0.944c-0.137,0.485 -0.145,0.485 -0.329,0.013c-0.278,-0.715 -0.271,-0.893 0.035,-0.893Zm3.827,-22.733c0.019,-0.255 0.062,-0.266 0.154,-0.038c0.097,0.242 0.213,0.229 0.484,-0.051c0.198,-0.204 0.358,-0.485 0.358,-0.625c0,-0.136 0.267,-0.398 0.574,-0.562c0.306,-0.163 0.725,-0.52 0.898,-0.765c0.37,-0.525 1.079,-0.408 1.079,0.179c0,0.204 -0.119,0.311 -0.255,0.229c-0.153,-0.092 -0.255,-0.056 -0.255,0.089c0,0.137 -0.335,0.6 -0.766,1.059c-0.43,0.46 -0.765,0.928 -0.765,1.072c0,0.434 -0.676,0.928 -0.995,0.728c-0.17,-0.107 -0.613,-0.135 -0.995,-0.065l-0.689,0.128l0.574,-0.51c0.306,-0.272 0.586,-0.677 0.599,-0.868Zm0.689,22.324c0.072,0.072 0.345,0.011 0.625,-0.14c0.481,-0.259 0.483,-0.242 0.045,0.498c-0.483,0.816 -1.15,0.834 -0.933,0.025c0.075,-0.281 0.193,-0.453 0.263,-0.383Zm3.652,-22.094c0.354,-0.383 0.796,-0.715 0.954,-0.715c0.153,0 0.293,-0.116 0.293,-0.242c0,-0.138 0.23,-0.313 0.536,-0.408c0.306,-0.095 0.47,-0.23 0.382,-0.315c-0.205,-0.2 0.664,-0.796 1.174,-0.806c0.643,-0.011 0.578,0.24 -0.307,1.184c-0.43,0.46 -0.765,0.94 -0.765,1.098c0,0.516 -1.275,1.36 -2.143,1.417c-1.046,0.069 -1.072,-0.187 -0.124,-1.213Zm0.677,22.299c0.56,-0.715 1.727,-1.02 1.367,-0.358c-0.13,0.239 -0.455,0.664 -0.723,0.944c-0.517,0.542 -0.584,0.689 -0.584,1.276c0,0.23 -0.106,0.347 -0.243,0.268c-0.132,-0.077 -0.323,-0.013 -0.421,0.14c-0.134,0.211 -0.225,0.204 -0.367,-0.025c-0.2,-0.323 0.212,-1.276 0.971,-2.245Zm3.74,-22.274c0.325,-0.383 0.677,-0.643 0.759,-0.561c0.089,0.089 0.153,0.025 0.153,-0.153c0,-0.447 1.403,-1.811 1.863,-1.812c0.229,0 0.475,-0.111 0.561,-0.255c0.092,-0.153 0.255,-0.255 0.408,-0.255c0.34,0 0.17,0.791 -0.281,1.301c-1.17,1.327 -1.53,1.867 -1.53,2.296c0,0.256 -0.121,0.497 -0.255,0.511c-0.143,0.014 -0.396,0.048 -0.575,0.076c-0.172,0.028 -0.535,-0.054 -0.79,-0.178c-0.332,-0.162 -0.423,-0.147 -0.307,0.051c0.094,0.158 -0.012,0.28 -0.242,0.28c-0.561,0 -0.478,-0.459 0.236,-1.301Zm0.596,22.605c0.182,-0.204 0.27,-0.382 0.189,-0.382c-0.086,0 0.025,-0.179 0.255,-0.409c0.229,-0.229 0.475,-0.341 0.561,-0.255c0.083,0.083 0.306,0.026 0.485,-0.123c0.482,-0.401 0.443,-0.183 -0.217,1.22c-0.84,1.786 -1.443,2.209 -1.966,1.378c-0.211,-0.336 -0.127,-0.51 0.693,-1.429Zm3.518,-22.069c0.204,0 0.37,-0.137 0.37,-0.306c0,-0.169 0.268,-0.54 0.6,-0.829c0.327,-0.286 0.802,-0.842 1.046,-1.225c0.243,-0.383 0.603,-0.702 0.791,-0.702c0.191,0 0.41,-0.204 0.491,-0.459c0.14,-0.434 1.409,-1.192 1.409,-0.842c0,0.098 -0.405,0.625 -0.893,1.161c-0.487,0.536 -0.893,1.139 -0.893,1.327c0,0.194 -0.178,0.344 -0.408,0.344c-0.255,0 -0.355,0.139 -0.268,0.37c0.082,0.215 -0.025,0.466 -0.255,0.6c-0.229,0.133 -0.385,0.326 -0.37,0.459c0.016,0.138 -0.076,0.24 -0.229,0.255c-0.154,0.015 -0.332,0.051 -0.447,0.089c-0.115,0.039 -0.268,0.054 -0.383,0.039c-0.104,-0.014 -0.191,0.102 -0.191,0.255c0,0.208 -0.089,0.208 -0.344,0c-0.179,-0.146 -0.443,-0.189 -0.549,-0.09c-0.114,0.108 -0.125,0.051 -0.025,-0.127c0.098,-0.176 0.344,-0.319 0.548,-0.319Zm2.437,20.231c0.331,-0.165 0.706,-0.211 0.816,-0.101c0.267,0.268 -0.587,2.034 -0.944,1.952c-0.153,-0.035 -0.188,-0.012 -0.076,0.051c0.271,0.152 0.229,0.829 -0.052,0.829c-0.121,0 -0.433,0.078 -0.663,0.166c-0.343,0.131 -0.399,0.051 -0.268,-0.383c0.108,-0.357 0.059,-0.548 -0.14,-0.548c-0.475,0 0.612,-1.611 1.327,-1.966Zm0.038,-40.246c0.306,0.061 0.812,0.222 1.084,0.344c0.29,0.13 0.842,0.362 1.276,0.536l0.765,0.306l-0.689,0.357c-0.484,0.252 -0.643,0.482 -0.535,0.778c0.102,0.281 0.055,0.362 -0.141,0.243c-0.153,-0.093 -0.293,-0.301 -0.293,-0.434c0,-0.14 -0.459,-0.674 -1.021,-1.186c-0.561,-0.513 -1.02,-0.96 -1.02,-0.996c0,-0.033 0.268,-0.01 0.574,0.052Zm2.258,19.39c0.122,0.074 0.152,-0.064 0.064,-0.294c-0.117,-0.306 -0.08,-0.381 0.127,-0.255c0.174,0.106 0.294,0.039 0.294,-0.166c0,-0.19 0.341,-0.714 0.765,-1.173c0.424,-0.459 0.765,-0.937 0.765,-1.072c0,-0.138 0.115,-0.242 0.268,-0.242c0.145,0 -0.043,0.523 -0.408,1.135c-0.364,0.613 -0.605,1.253 -0.523,1.391c0.092,0.153 0.051,0.316 -0.102,0.408c-0.153,0.092 -0.2,0.245 -0.117,0.383c0.149,0.249 0.015,0.292 -1.21,0.381c-0.561,0.041 -0.654,-0.021 -0.433,-0.292c0.145,-0.179 0.391,-0.277 0.51,-0.204Zm1.837,-8.051c0.27,-0.003 2.475,-2.32 2.475,-2.601c0,-0.11 0.37,-0.557 0.803,-0.97c0.434,-0.413 0.698,-0.771 0.574,-0.778c-0.127,-0.007 -0.025,-0.166 0.23,-0.357c0.26,-0.195 0.467,-0.6 0.477,-0.931c0.022,-0.766 0.47,-2.016 0.722,-2.016c0.112,0 0.262,-0.319 0.332,-0.701c0.069,-0.383 0.18,-0.934 0.242,-1.212c0.075,-0.334 -0.115,-0.709 -0.548,-1.085c-0.358,-0.309 -0.516,-0.574 -0.345,-0.574c0.179,0 0.375,-0.005 0.447,-0.012c0.072,-0.008 0.421,-0.284 0.803,-0.638c0.383,-0.354 0.771,-0.564 0.893,-0.485c0.124,0.08 0.217,0.026 0.217,-0.128c0,-0.15 0.281,-0.397 0.638,-0.561c0.51,-0.235 0.579,-0.362 0.345,-0.638c-0.232,-0.271 -0.205,-0.311 0.127,-0.191c0.23,0.084 0.74,-0.056 1.123,-0.306c0.382,-0.251 0.794,-0.436 0.905,-0.408c0.123,0.03 0.141,-0.051 0.046,-0.205c-0.21,-0.337 0.745,-0.759 1.154,-0.509c0.189,0.116 0.271,0.433 0.191,0.739c-0.08,0.306 -0.031,0.536 0.115,0.536c0.157,0 0.206,0.689 0.127,1.786c-0.071,0.995 -0.037,1.786 0.077,1.786c0.353,0 -0.165,1.939 -0.913,3.419c-0.801,1.581 -3.433,4.405 -3.782,4.056c-0.083,-0.083 -0.153,-0.025 -0.153,0.128c0,0.159 -0.331,0.458 -0.765,0.689c-0.434,0.231 -0.766,0.336 -0.766,0.242c0,-0.092 -0.222,0.102 -0.497,0.434c-0.275,0.331 -0.503,0.497 -0.51,0.37c-0.007,-0.124 -0.23,-0.036 -0.485,0.191c-0.267,0.238 -0.766,0.443 -1.148,0.472c-0.383,0.029 -0.676,0.14 -0.676,0.255c0,0.112 -0.23,0.204 -0.511,0.204c-0.28,0 -0.51,0.132 -0.51,0.294c0,0.153 -0.079,0.214 -0.166,0.127c-0.09,-0.09 -0.293,-0.061 -0.446,0.064c-0.158,0.129 -0.638,0.286 -1.097,0.357c-0.46,0.072 -0.962,0.201 -1.148,0.294c-0.188,0.094 0,-0.116 0.433,-0.485c0.434,-0.369 0.854,-0.651 0.97,-0.652Zm-0.077,29.725c0,-0.306 0.159,-0.76 0.37,-1.059c0.199,-0.281 0.311,-0.588 0.243,-0.663c-0.068,-0.075 0.051,-0.206 0.255,-0.281c0.314,-0.115 0.293,0.089 -0.115,1.135c-0.279,0.715 -0.436,1.383 -0.357,1.518c0.084,0.146 0.094,0.243 0.025,0.243c-0.062,0 -0.331,0.076 -0.587,0.165c-0.382,0.135 -0.411,0.101 -0.153,-0.178c0.183,-0.197 0.319,-0.574 0.319,-0.88Zm1.515,-22.631c0.281,-0.357 0.422,-0.728 0.322,-0.842c-0.102,-0.116 0.013,-0.138 0.268,-0.051c0.255,0.088 0.422,0.066 0.389,-0.051c-0.101,-0.357 1.075,-1.846 1.333,-1.687c0.153,0.094 0.23,0.075 0.192,-0.048c-0.035,-0.112 0.196,-0.536 0.515,-0.944c0.767,-0.979 0.723,-0.383 -0.064,0.868c-0.354,0.561 -0.645,1.112 -0.647,1.224c-0.006,0.255 -1.526,2.492 -1.526,2.245c0,-0.114 -0.281,-0.02 -0.638,0.213c-0.806,0.526 -0.885,0.017 -0.144,-0.927Zm2.969,20.845c0.172,-0.281 0.554,-0.97 0.849,-1.531c0.294,-0.561 0.535,-0.825 0.535,-0.587c0,0.23 -0.096,0.494 -0.204,0.561c-0.113,0.072 -0.181,0.472 -0.153,0.906c0.029,0.434 -0.067,0.778 -0.217,0.778c-0.153,0 -0.202,0.066 -0.114,0.153c0.2,0.201 -0.638,1.123 -1.021,1.123c-0.341,0 -0.223,-0.51 0.325,-1.403Zm1.831,-21.967c0.095,0.087 -0.064,0.366 -0.37,0.65c-0.306,0.285 -0.601,0.432 -0.689,0.345c-0.082,-0.083 0.089,-0.384 0.37,-0.651c0.281,-0.267 0.6,-0.427 0.689,-0.344Zm-0.447,-4.695c0.137,-0.204 0.256,-0.264 0.256,-0.128c0,0.137 -0.119,0.434 -0.256,0.638c-0.136,0.204 -0.255,0.264 -0.255,0.128c0,-0.136 0.119,-0.434 0.255,-0.638Zm3.215,2.807c0.07,0 0.001,0.229 -0.153,0.51c-0.154,0.28 -0.338,0.51 -0.408,0.51c-0.07,0 -0.001,-0.23 0.153,-0.51c0.154,-0.281 0.338,-0.51 0.408,-0.51Zm-0.076,21.24c0,-0.179 0.101,-0.319 0.229,-0.319c0.138,0 0.174,-0.092 0.09,-0.23c-0.073,-0.119 0.013,-0.395 0.178,-0.574c0.183,-0.197 0.319,-0.498 0.319,-0.702c0,-0.204 0.131,-0.401 0.306,-0.459c0.421,-0.141 0.179,2.511 -0.255,2.789c-0.204,0.131 -0.179,0.201 0.077,0.209c0.302,0.01 0.28,0.09 -0.102,0.381c-0.766,0.582 -1.242,0.494 -1.027,-0.19c0.104,-0.331 0.185,-0.725 0.185,-0.905Zm0.893,-22.797c0.055,0.179 -0.022,0.456 -0.166,0.6c-0.194,0.194 -0.222,0.102 -0.102,-0.332c0.092,-0.332 0.211,-0.451 0.268,-0.268Zm1.403,-3.304c-0.117,-0.007 -0.013,-0.122 0.242,-0.268c0.255,-0.145 0.447,-0.402 0.447,-0.599c0,-0.184 0.178,-0.488 0.382,-0.651c0.334,-0.267 0.347,-0.204 0.102,0.485c-0.153,0.434 -0.361,0.791 -0.459,0.791c-0.097,0 -0.342,0.408 -0.536,0.893c-0.193,0.485 -0.438,0.893 -0.535,0.893c-0.1,0 -0.246,0.28 -0.332,0.638c-0.086,0.357 -0.26,0.637 -0.396,0.637c-0.132,0 0.106,-0.637 0.524,-1.403c0.417,-0.765 0.672,-1.409 0.561,-1.416Zm5.893,17.745c0.205,-0.204 0.434,-0.281 0.536,-0.179c0.107,0.107 0.158,0.077 0.128,-0.076c-0.028,-0.138 -0.039,-0.472 -0.026,-0.727c0.022,-0.409 0.081,-0.427 0.434,-0.136c0.982,0.81 0.746,2.164 -0.703,4.026l-0.496,0.638l0.089,-0.676c0.051,-0.383 0.156,-0.742 0.243,-0.829c0.206,-0.206 -0.077,-1.403 -0.332,-1.403c-0.327,0 -0.281,-0.23 0.127,-0.638Zm2.399,-4.082c0.205,0.205 -0.255,0.625 -0.511,0.465c-0.156,-0.098 -0.127,-0.237 0.077,-0.363c0.179,-0.11 0.379,-0.157 0.434,-0.102Z" style="fill:#e99797;fill-rule:nonzero;"/><path d="M245.331,30.985c0.204,0.081 0.298,0.239 0.218,0.37c-0.154,0.254 1.568,0.147 2.257,-0.14c0.255,-0.106 0.522,-0.135 0.599,-0.064c0.078,0.071 0.472,0.031 0.881,-0.089c0.51,-0.15 0.74,-0.122 0.74,0.089c0,0.204 0.072,0.192 0.216,-0.038c0.113,-0.179 0.291,-0.334 0.37,-0.323c0.842,0.118 1.233,-0.006 1.108,-0.353c-0.086,-0.239 0.091,-0.502 0.474,-0.702c0.434,-0.226 0.549,-0.423 0.394,-0.676c-0.248,-0.405 -4.093,-0.584 -5.063,-0.236c-0.357,0.128 -0.532,0.116 -0.446,-0.032c0.084,-0.146 -0.179,-0.151 -0.664,-0.013c-0.433,0.124 -0.903,0.171 -1.02,0.102c-0.123,-0.071 -0.228,0.128 -0.243,0.46c-0.014,0.331 -0.058,0.786 -0.102,1.046c-0.042,0.255 0.083,0.522 0.281,0.599Z" style="fill:#e99797;fill-rule:nonzero;"/><path d="M276.746,42.224c0.054,0.332 0.211,0.587 0.362,0.587c0.156,0 0.204,0.166 0.115,0.395c-0.089,0.23 -0.067,0.342 0.051,0.268c0.114,-0.07 0.51,0.032 0.893,0.23c0.383,0.198 0.904,0.341 1.174,0.321c0.561,-0.042 1.491,-1.432 1.122,-1.679c-0.546,-0.366 -0.536,-1.02 0.026,-1.553c0.306,-0.291 0.642,-0.458 0.74,-0.368c0.107,0.1 0.178,0.069 0.178,-0.076c0,-0.132 0.238,-0.498 0.523,-0.804c0.286,-0.306 0.453,-0.677 0.369,-0.816c-0.267,-0.443 -1.53,-0.285 -2.116,0.265c-0.307,0.287 -0.817,0.578 -1.123,0.64c-0.306,0.063 -0.654,0.26 -0.765,0.434c-0.115,0.179 -0.205,0.229 -0.205,0.115c0,-0.11 -0.142,-0.051 -0.309,0.128c-0.859,0.918 -1.117,1.396 -1.035,1.913Z" style="fill:#e99797;fill-rule:nonzero;"/><path d="M282.3,42.558c0.413,0.341 1.684,-0.334 2.363,-1.252c0.508,-0.689 0.515,-0.774 0.1,-1.225c-0.47,-0.51 -1.315,-0.691 -1.315,-0.281c0,0.138 -0.081,0.18 -0.204,0.105c-0.32,-0.195 -1.203,1.12 -1.214,1.809c-0.006,0.331 0.118,0.719 0.27,0.844Z" style="fill:#e99797;fill-rule:nonzero;"/><path d="M296.46,44.472c0.155,0.097 0.218,0.342 0.141,0.546c-0.078,0.204 -0.026,0.301 0.114,0.217c0.144,-0.086 0.256,0.025 0.256,0.255c0,0.229 0.111,0.341 0.255,0.255c0.136,-0.082 0.523,0.097 0.829,0.383c0.306,0.285 0.616,0.41 0.663,0.268c0.051,-0.154 0.183,-0.213 0.306,-0.141c0.124,0.073 0.376,-0.102 0.587,-0.408c0.273,-0.395 0.689,-0.552 1.582,-0.6c0.944,-0.049 1.342,-0.213 1.799,-0.739c0.354,-0.409 0.546,-0.894 0.485,-1.225c-0.057,-0.306 -0.037,-0.481 0.046,-0.396c0.192,0.198 0.932,-0.816 1.023,-1.403c0.1,-0.638 -0.652,-1.317 -1.069,-0.967c-0.205,0.171 -0.392,0.18 -0.487,0.023c-0.166,-0.272 -0.611,-0.253 -1.095,0.049c-0.19,0.118 -0.562,0.081 -0.868,-0.087c-0.408,-0.224 -0.49,-0.221 -0.344,0.013c0.136,0.217 0.013,0.252 -0.421,0.121c-0.74,-0.223 -0.74,-0.223 -1.454,0.005c-0.307,0.098 -0.562,0.29 -0.562,0.422c0,0.146 -0.081,0.192 -0.204,0.115c-0.11,-0.069 -0.408,0.217 -0.65,0.625c-0.243,0.408 -0.552,0.695 -0.677,0.625c-0.129,-0.072 -0.185,0.204 -0.127,0.638c0.058,0.434 0.002,0.765 -0.128,0.765c-0.331,0 -0.331,0.433 0,0.641Z" style="fill:#e99797;fill-rule:nonzero;"/><path d="M315.315,41.255c0.264,0.306 0.56,0.549 0.65,0.535c0.091,-0.013 0.651,0.206 1.238,0.485c0.587,0.28 1.36,0.551 1.709,0.6c0.357,0.05 0.778,0.173 0.957,0.28c0.179,0.107 0.319,0.068 0.319,-0.089c0,-0.153 0.11,-0.211 0.242,-0.128c0.134,0.085 0.365,-0.076 0.514,-0.357c0.326,-0.612 -0.189,-1.981 -0.705,-1.874c-0.179,0.037 -0.306,-0.028 -0.306,-0.154c0,-0.118 -0.255,-0.194 -0.562,-0.166c-0.304,0.028 -0.969,-0.153 -1.454,-0.395c-0.485,-0.243 -1.062,-0.383 -1.263,-0.307c-0.255,0.097 -0.31,0.042 -0.178,-0.178c0.106,-0.177 -0.217,-0.052 -0.727,0.281c-0.511,0.333 -0.919,0.667 -0.919,0.752c0,0.084 0.221,0.408 0.485,0.715Z" style="fill:#e99797;fill-rule:nonzero;"/><path d="M328.709,36.451c0.179,-0.147 0.415,-0.191 0.511,-0.095c0.306,0.306 1.139,0.355 1.309,0.076c0.238,-0.39 0.631,-0.306 0.476,0.103c-0.074,0.192 0.039,0.465 0.269,0.65c0.229,0.185 0.395,0.239 0.395,0.128c0,-0.105 0.23,0.015 0.51,0.268c0.281,0.252 0.585,0.39 0.676,0.306c0.091,-0.084 0.549,0.009 1.008,0.204c0.562,0.238 1.093,0.285 1.595,0.14c0.408,-0.117 0.834,-0.141 0.931,-0.051c0.102,0.095 0.14,0.013 0.089,-0.191c-0.051,-0.204 0.141,-0.478 0.447,-0.638c0.306,-0.16 0.487,-0.417 0.421,-0.6c-0.065,-0.179 0.064,-0.385 0.293,-0.472c0.23,-0.086 0.408,-0.309 0.408,-0.51c0,-0.204 0.137,-0.357 0.319,-0.357c0.204,0 0.227,-0.069 0.064,-0.191c-0.139,-0.105 -0.249,-1.021 -0.242,-2.016c0.007,-0.995 -0.08,-1.771 -0.192,-1.706c-0.189,0.109 -0.316,-0.501 -0.216,-1.037c0.021,-0.115 -0.179,-0.131 -0.46,-0.038c-0.28,0.094 -0.566,0.055 -0.655,-0.089c-0.263,-0.427 -1.243,-0.357 -1.076,0.076c0.089,0.234 -0.08,0.411 -0.488,0.511c-0.332,0.081 -0.625,0.273 -0.625,0.408c0,0.143 -0.179,0.255 -0.409,0.255c-0.255,0 -0.355,0.139 -0.268,0.37c0.097,0.254 0.013,0.322 -0.267,0.217c-0.281,-0.105 -0.349,-0.058 -0.219,0.153c0.206,0.331 -0.461,1.121 -0.725,0.858c-0.308,-0.306 -0.179,-0.874 0.153,-0.675c0.214,0.129 0.205,0.046 -0.026,-0.234c-0.189,-0.23 -0.273,-0.518 -0.178,-0.613c0.097,-0.097 -0.077,-0.313 -0.383,-0.474c-0.715,-0.377 -1.761,0.041 -1.761,0.704c0,0.255 -0.107,0.459 -0.242,0.459c-0.132,0 -0.173,0.192 -0.089,0.421c0.111,0.306 0.042,0.38 -0.255,0.268c-0.281,-0.105 -0.369,-0.049 -0.281,0.179c0.073,0.189 -0.023,0.485 -0.225,0.689c-0.579,0.586 -1.002,1.505 -0.694,1.505c0.164,0 0.201,0.128 0.09,0.306c-0.351,0.561 -0.343,1.026 0.012,0.733Zm2.705,-1.294c0.153,0 0.255,0.046 0.255,0.115c0,0.069 -0.102,0.176 -0.255,0.268c-0.146,0.087 -0.255,0.038 -0.255,-0.115c0,-0.153 0.109,-0.268 0.255,-0.268Zm0.638,-1.021c0.204,-0.163 0.305,-0.431 0.217,-0.574c-0.101,-0.163 -0.051,-0.198 0.127,-0.089c0.211,0.129 0.176,0.357 -0.125,0.816c-0.435,0.664 -0.602,0.77 -0.602,0.383c0,-0.122 0.179,-0.372 0.383,-0.536Zm3.184,0.153c0.655,-0.867 0.77,-0.936 0.77,-0.459c0,0.306 -0.139,0.561 -0.306,0.561c-0.229,0 -0.232,0.074 -0.013,0.294c0.226,0.226 0.141,0.374 -0.37,0.641c-1.122,0.589 -1.139,0.367 -0.081,-1.037Z" style="fill:#e99797;fill-rule:nonzero;"/><path d="M262.992,75.009c0.068,0.323 0.313,0.444 0.824,0.408c0.408,-0.028 0.671,-0.14 0.599,-0.255c-0.073,-0.116 -0.013,-0.22 0.141,-0.242c0.153,-0.022 0.355,-0.051 0.472,-0.067c0.255,-0.036 1.071,-0.811 1.071,-1.018c0,-0.131 0.818,-1.148 1.437,-1.786c0.154,-0.158 0.566,-0.502 0.949,-0.79c0.382,-0.289 0.676,-0.655 0.676,-0.842c0,-0.179 0.112,-0.261 0.242,-0.179c0.139,0.088 0.363,-0.077 0.523,-0.383c0.161,-0.306 0.357,-0.486 0.459,-0.421c0.101,0.065 0.167,-0.242 0.151,-0.701c-0.044,-1.301 -0.087,-1.429 -0.482,-1.429c-0.204,0 -0.383,-0.119 -0.383,-0.255c0,-0.415 -0.835,-0.204 -1.214,0.306c-0.19,0.255 -0.501,0.459 -0.7,0.459c-0.196,0 -0.426,0.23 -0.51,0.51c-0.084,0.281 -0.25,0.453 -0.37,0.383c-0.123,-0.073 -0.277,0.102 -0.357,0.408c-0.08,0.307 -0.255,0.465 -0.408,0.37c-0.144,-0.089 -0.268,-0.012 -0.268,0.166c0,0.434 -0.919,1.25 -1.148,1.021c-0.084,-0.084 -0.078,0.038 0.013,0.268c0.11,0.28 -0.013,0.531 -0.37,0.752c-0.307,0.19 -0.536,0.447 -0.536,0.6c0,0.145 -0.197,0.548 -0.43,0.88c-0.454,0.648 -0.542,1.072 -0.381,1.837Z" style="fill:#e99797;fill-rule:nonzero;"/><path d="M267.949,78.211c0.168,0.128 0.548,0.321 0.804,0.408c0.408,0.14 0.434,0.106 0.165,-0.217c-0.259,-0.31 -0.242,-0.382 0.09,-0.382c0.229,0 0.408,-0.123 0.408,-0.281c0,-0.155 0.166,-0.218 0.37,-0.14c0.254,0.096 0.322,0.012 0.217,-0.268c-0.096,-0.255 -0.053,-0.346 0.114,-0.243c0.151,0.093 0.493,-0.114 0.779,-0.472c0.285,-0.357 0.628,-0.637 0.778,-0.637c0.151,0 0.223,-0.217 0.166,-0.498c-0.08,-0.388 0.012,-0.475 0.421,-0.395c0.433,0.084 0.471,0.039 0.216,-0.268c-0.256,-0.31 -0.216,-0.37 0.243,-0.37c0.306,0 0.481,-0.113 0.395,-0.255c-0.091,-0.153 -0.056,-0.256 0.09,-0.256c0.136,0 0.637,-0.395 1.148,-0.905c0.561,-0.562 1.032,-0.838 1.237,-0.727c0.179,0.096 0.249,0.09 0.153,-0.013c-0.095,-0.102 0,-0.37 0.204,-0.574c0.545,-0.544 0.46,-1.763 -0.153,-2.193c-0.28,-0.197 -0.453,-0.416 -0.382,-0.486c0.07,-0.07 -0.103,-0.11 -0.383,-0.089c-0.278,0.02 -1.212,0.699 -2.054,1.492c-0.842,0.794 -1.659,1.454 -1.799,1.454c-0.153,0 -0.199,0.092 -0.115,0.23c0.08,0.13 -0.191,0.49 -0.625,0.829c-0.433,0.34 -0.765,0.744 -0.765,0.931c0,0.179 -0.118,0.261 -0.255,0.179c-0.148,-0.089 -0.191,0.013 -0.102,0.242c0.089,0.23 0.062,0.396 -0.064,0.396c-0.118,0 -0.438,0.408 -0.702,0.893c-0.263,0.485 -0.607,0.893 -0.752,0.893c-0.163,0 -0.153,0.115 0.025,0.293c0.202,0.202 0.218,0.434 0.051,0.74c-0.166,0.306 -0.142,0.523 0.077,0.689Z" style="fill:#e99797;fill-rule:nonzero;"/><path d="M273.677,78.704c0.331,-0.204 0.913,0.439 0.65,0.719c-0.104,0.111 0.064,0.048 0.37,-0.14c0.408,-0.251 0.478,-0.4 0.255,-0.549c-0.229,-0.153 -0.229,-0.205 0,-0.207c0.383,-0.005 1.358,-1.053 1.207,-1.298c-0.058,-0.095 0.095,-0.161 0.324,-0.141c0.243,0.022 0.58,-0.242 0.766,-0.599c0.185,-0.357 0.5,-0.604 0.714,-0.561c0.209,0.041 0.383,-0.115 0.383,-0.345c0,-0.306 0.087,-0.355 0.319,-0.178c0.23,0.175 0.496,0.025 0.956,-0.536c0.356,-0.434 0.497,-0.694 0.319,-0.587c-0.178,0.107 -0.319,0.073 -0.319,-0.077c0,-0.153 0.192,-0.268 0.447,-0.268c0.306,0 0.35,-0.064 0.14,-0.204c-0.204,-0.136 -0.225,-0.331 -0.062,-0.586c0.308,-0.485 0.317,-1.326 0.011,-1.137c-0.122,0.075 -0.296,-0.037 -0.373,-0.241c-0.241,-0.644 -0.7,-0.434 -1.948,0.893c-0.672,0.714 -1.278,1.197 -1.378,1.097c-0.095,-0.094 -0.101,0.025 -0.013,0.255c0.117,0.306 0.046,0.434 -0.243,0.434c-0.244,0 -0.408,0.204 -0.408,0.51c0,0.349 -0.166,0.51 -0.523,0.51c-0.28,0 -0.458,0.107 -0.382,0.23c0.08,0.131 -0.009,0.383 -0.208,0.587c-0.293,0.3 -0.722,1.25 -0.784,1.735c-0.009,0.073 -0.114,0.28 -0.246,0.484c-0.147,0.23 -0.138,0.301 0.026,0.2Z" style="fill:#e99797;fill-rule:nonzero;"/><path d="M279.353,80.303c0.332,0.178 0.474,0.415 0.36,0.6c-0.322,0.523 0.737,-0.383 1.851,-1.582c0.687,-0.74 1.156,-1.053 1.374,-0.919c0.204,0.126 0.273,0.107 0.179,-0.051c-0.086,-0.143 0.127,-0.406 0.484,-0.599c0.409,-0.221 0.597,-0.505 0.523,-0.791c-0.065,-0.255 0.044,-0.507 0.256,-0.587c0.229,-0.087 0.302,-0.029 0.191,0.153c-0.109,0.179 -0.064,0.224 0.115,0.115c0.158,-0.096 0.293,-0.332 0.293,-0.51c0,-0.182 0.294,-0.464 0.651,-0.625c0.357,-0.161 0.714,-0.466 0.791,-0.677c0.075,-0.204 0.223,-0.331 0.319,-0.272c0.474,0.292 0.153,-1.465 -0.358,-1.955c-0.637,-0.613 -1.682,-0.823 -1.48,-0.298c0.086,0.221 -0.05,0.297 -0.408,0.229c-0.306,-0.058 -0.535,0.035 -0.535,0.217c0,0.178 -0.226,0.561 -0.511,0.868c-0.284,0.306 -0.51,0.644 -0.51,0.765c0,0.118 -0.319,0.501 -0.702,0.842c-0.382,0.341 -0.863,0.944 -1.058,1.327c-0.195,0.382 -0.45,0.701 -0.562,0.701c-0.255,0 -1.321,2.048 -1.071,2.058c0.11,0.005 -0.013,0.167 -0.268,0.353c-0.461,0.337 -0.459,0.352 0.076,0.638Z" style="fill:#e99797;fill-rule:nonzero;"/><path d="M288.041,79.677c0.109,-0.068 0.271,0.052 0.348,0.256c0.283,0.756 0.593,0.536 3.019,-2.143c0.671,-0.74 1.225,-1.514 1.225,-1.709c0,-0.204 0.11,-0.358 0.255,-0.358c0.545,0 -0.357,-1.242 -0.995,-1.371c-0.526,-0.106 -0.828,0.045 -1.467,0.734c-0.449,0.484 -0.758,0.912 -0.701,0.969c0.058,0.058 -0.169,0.396 -0.523,0.778c-0.354,0.383 -0.548,0.682 -0.447,0.689c0.099,0.007 -0.025,0.168 -0.28,0.361c-0.434,0.328 -0.851,2.051 -0.434,1.794Z" style="fill:#e99797;fill-rule:nonzero;"/><path d="M298.757,79.04c0.144,0 0.255,0.217 0.255,0.498c0,0.281 0.255,0.586 0.586,0.701c0.715,0.248 4.261,0.27 4.261,0.026c0,-0.095 0.204,-0.243 0.434,-0.316c0.612,-0.194 0.796,-2.435 0.204,-2.484c-0.204,-0.017 -0.651,-0.05 -0.957,-0.07c-0.306,-0.021 -0.782,0.193 -1.02,0.459c-0.321,0.357 -0.447,0.397 -0.447,0.14c0,-0.229 -0.068,-0.261 -0.191,-0.089c-0.106,0.149 -0.702,0.257 -1.34,0.242c-0.637,-0.014 -1.284,0.019 -1.454,0.075c-0.383,0.125 -0.663,0.818 -0.331,0.818Z" style="fill:#e99797;fill-rule:nonzero;"/><path d="M320.48,79.78c0.32,0.868 0.32,0.868 1.213,0.408c0.434,-0.224 0.791,-0.339 0.791,-0.255c0,0.082 0.179,-0.025 0.383,-0.229c0.204,-0.205 0.383,-0.508 0.383,-0.651c0,-0.15 0.28,-0.335 0.637,-0.421c0.358,-0.086 0.576,-0.254 0.498,-0.383c-0.077,-0.125 -0.013,-0.229 0.14,-0.229c0.383,0 1.787,-1.582 1.631,-1.837c-0.067,-0.108 0.079,-0.126 0.308,-0.039c0.281,0.108 0.376,0.072 0.268,-0.102c-0.096,-0.155 0,-0.332 0.23,-0.421c0.229,-0.088 0.32,-0.276 0.217,-0.446c-0.119,-0.196 -0.039,-0.242 0.242,-0.14c0.23,0.083 0.408,0.072 0.392,-0.026c-0.092,-0.561 0.048,-1.082 0.259,-0.962c0.138,0.079 0.401,-0.263 0.574,-0.747c0.173,-0.485 0.412,-0.893 0.523,-0.893c0.114,0 0.176,-0.141 0.14,-0.319c-0.034,-0.172 0.089,-0.29 0.268,-0.255c0.225,0.043 0.182,-0.141 -0.136,-0.574c-0.411,-0.562 -1.297,-1.173 -0.998,-0.689c0.142,0.229 -0.737,1.076 -0.958,0.923c-0.08,-0.056 -0.037,0.033 0.089,0.187c0.165,0.199 0,0.527 -0.51,1.02c-0.408,0.395 -0.753,0.85 -0.753,0.995c0,0.153 -0.087,0.214 -0.204,0.143c-0.28,-0.172 -1.075,0.776 -0.853,1.018c0.088,0.095 -0.104,0.113 -0.41,0.038c-0.306,-0.075 -0.514,-0.045 -0.446,0.064c0.171,0.274 -0.128,1.021 -0.409,1.021c-0.127,0 -0.433,0.183 -0.688,0.412c-0.893,0.803 -1.967,1.629 -2.118,1.629c-0.451,0 -0.919,1.173 -0.703,1.76Z" style="fill:#e99797;fill-rule:nonzero;"/><path d="M262.655,20.703c0.222,0.082 0.382,0.307 0.382,0.536c0,0.277 0.23,0.38 0.766,0.345c0.434,-0.029 0.765,-0.201 0.765,-0.396c0,-0.178 0.105,-0.277 0.217,-0.204c0.123,0.08 0.51,-0.131 0.893,-0.485c0.383,-0.353 0.676,-0.558 0.676,-0.472c0,0.083 0.217,-0.04 0.472,-0.268c0.255,-0.227 0.549,-0.344 0.638,-0.255c0.1,0.1 0.166,0.064 0.166,-0.089c0,-0.138 0.352,-0.625 0.765,-1.059c0.414,-0.434 0.701,-0.804 0.625,-0.804c-0.078,0 0.256,-0.345 0.766,-0.79c0.536,-0.468 0.833,-0.911 0.727,-1.085c-0.1,-0.164 -0.211,-0.855 -0.252,-1.569c-0.105,-1.837 -0.105,-1.837 -0.769,-2.148c-0.331,-0.156 -0.586,-0.381 -0.586,-0.518c0,-0.136 -0.141,-0.192 -0.319,-0.128c-0.176,0.064 -0.753,0.155 -1.289,0.204c-0.779,0.072 -1.194,0.332 -2.117,1.327c-0.64,0.689 -1.092,1.379 -1.021,1.557c0.076,0.189 -0.013,0.267 -0.217,0.191c-0.221,-0.082 -0.391,0.127 -0.476,0.587c-0.222,1.199 -0.39,1.809 -0.634,2.296c-0.127,0.255 -0.258,0.969 -0.293,1.607c-0.035,0.638 -0.109,1.222 -0.166,1.314c-0.054,0.089 0.077,0.232 0.281,0.306Zm2.845,-3.916c-0.09,0 0.143,-0.344 0.51,-0.753c0.367,-0.408 0.775,-0.694 0.893,-0.625c0.116,0.068 0.148,-0.051 0.07,-0.255c-0.177,-0.459 1.06,-0.873 1.448,-0.485c0.224,0.225 -1.327,1.914 -1.939,2.112c-0.138,0.045 -0.408,0.299 -0.587,0.555c-0.179,0.255 -0.519,0.472 -0.74,0.472c-0.347,0 -0.339,-0.077 0.051,-0.511c0.253,-0.28 0.385,-0.51 0.294,-0.51Z" style="fill:#e99797;fill-rule:nonzero;"/><path d="M267.783,25.86c0.289,-0.116 0.304,-0.041 0.077,0.393c-0.161,0.306 -0.177,0.475 -0.039,0.395c0.139,-0.08 0.472,0.074 0.778,0.36c0.73,0.68 2.246,0.834 3.292,0.335c0.484,-0.231 0.771,-0.526 0.676,-0.695c-0.098,-0.174 -0.026,-0.163 0.178,0.026c0.286,0.264 0.51,0.14 1.314,-0.728c0.544,-0.586 0.908,-1.146 0.83,-1.275c-0.085,-0.138 -0.059,-0.217 0.063,-0.198c0.644,0.102 0.764,-0.159 0.752,-1.639c-0.011,-1.48 -0.077,-1.668 -0.828,-2.365c-0.858,-0.796 -1.072,-0.893 -2.347,-1.069c-0.511,-0.07 -0.817,-0.007 -0.817,0.168c0,0.16 -0.191,0.292 -0.446,0.306c-0.256,0.015 -0.315,0.079 -0.141,0.149c0.427,0.173 0.102,0.846 -0.408,0.846c-0.238,0 -0.594,0.23 -0.791,0.51c-0.196,0.281 -0.449,0.511 -0.561,0.511c-0.398,0 -1.172,0.995 -1.467,1.888c-0.482,1.454 -0.526,2.246 -0.115,2.082Zm3.304,-1.661c-0.138,-0.007 -0.013,-0.177 0.293,-0.396c0.3,-0.214 0.607,-0.663 0.698,-1.02c0.175,-0.689 0.518,-0.815 0.832,-0.306c0.267,0.434 0.287,1.205 0.027,1.044c-0.107,-0.065 -0.204,0.014 -0.204,0.167c0,0.162 -0.166,0.231 -0.37,0.154c-0.254,-0.097 -0.342,0 -0.281,0.306c0.071,0.355 -0.102,0.454 -0.842,0.484c-0.74,0.031 -0.826,-0.008 -0.421,-0.191c0.281,-0.126 0.401,-0.235 0.268,-0.242Z" style="fill:#e99797;fill-rule:nonzero;"/><path d="M276.049,16.022c0.097,0 0.325,0.28 0.498,0.612c0.264,0.507 0.472,0.593 1.212,0.502c1.033,-0.128 1.811,-0.601 3.112,-1.893c1.123,-1.115 1.686,-2.133 1.416,-2.564c-0.127,-0.204 -0.093,-0.246 0.103,-0.127c0.17,0.104 0.357,0.013 0.446,-0.217c0.089,-0.23 0.276,-0.321 0.446,-0.217c0.19,0.115 0.181,0.038 -0.025,-0.217c-0.185,-0.229 -0.249,-0.459 -0.153,-0.548c0.091,-0.084 0.189,-0.74 0.217,-1.455c0.028,-0.714 -0.001,-1.243 -0.064,-1.173c-0.062,0.068 -0.357,-0.097 -0.638,-0.357c-0.28,-0.26 -0.623,-0.426 -0.74,-0.358c-0.118,0.07 -0.217,0 -0.217,-0.153c0,-0.157 -0.14,-0.196 -0.319,-0.089c-0.175,0.105 -0.548,0.203 -0.829,0.218c-1.326,0.069 -1.919,0.415 -1.875,1.096c0.055,0.867 -0.685,2.602 -1.11,2.602c-0.243,0 -0.229,0.068 0.051,0.255c0.332,0.222 0.332,0.256 0,0.256c-0.314,0 -1.265,1.224 -1.426,1.837c-0.032,0.122 -0.082,0.234 -0.126,0.28c-0.144,0.153 -0.125,1.71 0.021,1.71Zm4.083,-4.555c0,-0.17 0.165,-0.293 0.395,-0.293c0.324,0 0.301,0.102 -0.128,0.561c-0.285,0.306 -0.523,0.655 -0.523,0.766c0,0.106 -0.14,0.204 -0.293,0.204c-0.174,0 -0.123,-0.192 0.128,-0.472c0.227,-0.255 0.421,-0.607 0.421,-0.766Z" style="fill:#e99797;fill-rule:nonzero;"/><path d="M282.27,25.334c0.427,0.791 1.307,1.575 1.638,1.459c0.165,-0.057 0.317,0.11 0.331,0.365c0.016,0.281 0.078,0.343 0.153,0.153c0.071,-0.175 0.46,-0.319 0.868,-0.319c0.408,0 0.74,-0.114 0.74,-0.255c0,-0.153 0.081,-0.243 0.204,-0.224c0.459,0.069 0.816,-0.056 0.816,-0.286c0,-0.14 0.23,-0.485 0.511,-0.765c0.28,-0.281 0.51,-0.688 0.51,-0.906c0,-0.255 0.113,-0.327 0.319,-0.204c0.225,0.135 0.217,0.064 -0.026,-0.243c-0.182,-0.229 -0.236,-0.433 -0.115,-0.433c0.123,0 0.242,-0.268 0.256,-0.574c0.014,-0.326 0.037,-0.906 0.051,-1.34c0.048,-1.378 -0.069,-2.132 -0.307,-1.99c-0.143,0.086 -0.188,-0.025 -0.102,-0.255c0.09,-0.24 -0.025,-0.513 -0.28,-0.663c-0.358,-0.21 -0.366,-0.262 -0.051,-0.294c0.208,-0.02 -0.026,-0.184 -0.511,-0.357c-0.637,-0.228 -0.947,-0.239 -1.084,-0.038c-0.143,0.21 -0.191,0.204 -0.191,-0.026c0,-0.381 -0.886,-0.153 -1.287,0.332c-0.232,0.281 -0.229,0.357 0.011,0.357c0.164,0 0.064,0.207 -0.217,0.447c-0.28,0.239 -0.558,0.612 -0.599,0.803c-0.043,0.2 -0.33,0.638 -0.651,0.995c-0.321,0.357 -0.518,0.723 -0.446,0.83c0.076,0.114 0.025,0.227 -0.128,0.28c-0.143,0.05 -0.294,0.549 -0.344,1.135c-0.051,0.587 -0.146,1.148 -0.217,1.276c-0.071,0.126 -0.004,0.459 0.148,0.74Zm2.377,-2.424c-0.164,-0.178 -0.176,-0.261 -0.025,-0.178c0.152,0.083 0.668,-0.281 1.123,-0.791l0.842,-0.944l-0.166,0.893c-0.09,0.485 -0.184,1.039 -0.204,1.212c-0.022,0.178 -0.151,0.319 -0.294,0.319c-0.153,0 -0.194,0.061 -0.102,0.153c0.266,0.265 -0.434,0.797 -0.893,0.679c-0.357,-0.092 -0.405,-0.217 -0.217,-0.565c0.167,-0.306 0.146,-0.55 -0.064,-0.778Z" style="fill:#e99797;fill-rule:nonzero;"/><path d="M290.516,15.001c0.178,0 0.308,0.089 0.28,0.191c-0.029,0.11 0.075,0.421 0.243,0.728c0.168,0.306 0.222,0.612 0.127,0.714c-0.089,0.097 0.051,0.097 0.306,0c0.307,-0.116 0.411,-0.08 0.298,0.102c-0.192,0.309 0.736,0.671 1.118,0.437c0.138,-0.084 0.262,-0.003 0.268,0.175c0.007,0.183 0.116,0.102 0.243,-0.178c0.126,-0.281 0.238,-0.361 0.248,-0.179c0.023,0.41 2.048,-1.709 2.048,-2.143c0,-0.187 0.223,-0.727 0.51,-1.237c0.288,-0.511 0.449,-0.906 0.37,-0.906c-0.08,0 -0.014,-0.23 0.153,-0.536c0.168,-0.306 0.184,-0.47 0.038,-0.383c-0.147,0.089 -0.202,-0.051 -0.131,-0.331c0.163,-0.638 -0.362,-2.243 -0.787,-2.408c-0.167,-0.064 -0.689,-0.083 -1.148,-0.042c-0.715,0.065 -0.823,0.004 -0.715,-0.408c0.068,-0.255 0.001,-0.485 -0.14,-0.485c-0.153,0 -0.497,-0.185 -0.804,-0.433c-0.306,-0.248 -0.404,-0.286 -0.229,-0.09c0.248,0.279 0.204,0.398 -0.23,0.625c-0.306,0.161 -0.508,0.38 -0.472,0.511c0.038,0.137 -0.028,0.292 -0.166,0.385c-0.294,0.2 -1.352,2.472 -1.352,2.906c0,0.179 -0.141,0.473 -0.306,0.638c-0.179,0.178 -0.194,0.306 -0.038,0.306c0.143,0 0.268,0.179 0.268,0.383c0,0.204 -0.101,0.382 -0.217,0.382c-0.122,0 -0.195,0.281 -0.166,0.638c0.028,0.357 0.197,0.638 0.383,0.638Zm3.046,-3.495c0.534,-0.562 0.591,0.306 0.076,1.148c-0.266,0.434 -0.391,0.854 -0.29,0.969c0.094,0.109 -0.026,0.049 -0.256,-0.127c-0.36,-0.276 -0.381,-0.447 -0.127,-1.008c0.173,-0.383 0.433,-0.809 0.597,-0.982Z" style="fill:#e99797;fill-rule:nonzero;"/><path d="M298.412,20.844c0.168,0.014 0.277,0.408 0.255,0.918c-0.02,0.485 0.032,0.893 0.115,0.893c0.083,0 0.167,0.153 0.182,0.332c0.042,0.485 0.18,1.047 0.324,1.327c0.07,0.136 0.126,0.433 0.119,0.637c-0.007,0.212 0.255,0.634 0.587,0.944c0.357,0.335 0.522,0.685 0.408,0.868c-0.127,0.204 -0.089,0.244 0.115,0.119c0.25,-0.153 1.959,0.697 2.325,1.157c0.284,0.357 0.963,0.439 1.272,0.153c0.255,-0.236 0.291,-0.233 0.153,0.012c-0.142,0.255 -0.051,0.26 0.46,0.024c0.703,-0.325 0.735,-0.445 0.643,-2.384c-0.095,-2.015 -0.13,-2.308 -0.309,-2.602c-0.087,-0.142 -0.111,-0.498 -0.054,-0.804c0.057,-0.306 0.024,-0.548 -0.076,-0.548c-0.097,0 -0.451,-0.574 -0.778,-1.263c-0.339,-0.715 -0.833,-1.34 -1.136,-1.44c-0.791,-0.26 -1.709,-0.275 -1.709,-0.027c0,0.116 -0.23,0.078 -0.536,-0.09c-0.383,-0.209 -0.488,-0.213 -0.37,-0.012c0.097,0.163 0,0.28 -0.229,0.28c-0.21,0 -0.588,0.294 -0.804,0.625c-0.217,0.332 -0.606,0.68 -0.829,0.74c-0.23,0.063 -0.288,0.127 -0.128,0.141Zm3.074,1.053c0.434,0.003 1.431,0.491 1.021,0.499c-0.114,0.002 -0.074,0.246 0.089,0.553c0.158,0.293 0.347,0.88 0.409,1.262c0.11,0.689 0.092,0.704 -0.511,0.409c-0.331,-0.163 -0.62,-0.366 -0.615,-0.434c0.041,-0.536 -0.089,-0.773 -0.342,-0.62c-0.178,0.109 -0.242,0.085 -0.153,-0.056c0.088,-0.138 0.054,-0.396 -0.078,-0.6c-0.38,-0.587 -0.304,-1.017 0.18,-1.013Z" style="fill:#e99797;fill-rule:nonzero;"/><path d="M301.844,10.268c0.131,-0.08 0.229,-0.025 0.229,0.128c0,0.142 0.294,0.525 0.625,0.816c0.332,0.291 0.554,0.669 0.472,0.804c-0.093,0.155 -0.038,0.185 0.141,0.077c0.153,-0.094 0.293,-0.075 0.293,0.038c0,0.119 0.625,0.492 1.391,0.829c0.765,0.337 1.347,0.681 1.295,0.765c-0.127,0.206 1.907,0.111 2.621,-0.122c0.306,-0.1 0.561,-0.294 0.561,-0.426c0,-0.146 0.092,-0.186 0.23,-0.102c0.131,0.08 0.142,-0.243 0.025,-0.753c-0.11,-0.485 -0.145,-1.126 -0.076,-1.403c0.07,-0.281 0.013,-0.51 -0.128,-0.51c-0.14,0 -0.226,-0.294 -0.191,-0.651c0.035,-0.357 0,-0.587 -0.077,-0.51c-0.077,0.077 -0.37,-0.071 -0.65,-0.329c-0.513,-0.472 -1.531,-0.755 -3.087,-0.858c-0.434,-0.029 -0.849,-0.167 -0.957,-0.319c-0.128,-0.178 -0.192,-0.165 -0.192,0.039c0,0.19 -0.28,0.272 -0.739,0.216c-0.979,-0.118 -1.86,0.626 -1.949,1.646c-0.038,0.434 0.033,0.705 0.163,0.625Z" style="fill:#e99797;fill-rule:nonzero;"/><path d="M310.059,20.434c0.115,-0.071 0.395,0.333 0.638,0.92c0.243,0.587 0.63,1.108 0.88,1.186c0.255,0.081 0.398,0.223 0.332,0.332c-0.062,0.103 0.127,0.363 0.408,0.561c0.281,0.199 0.689,0.524 0.88,0.702c0.204,0.189 0.357,0.244 0.357,0.128c0,-0.11 0.1,-0.052 0.216,0.127c0.261,0.401 1.264,0.602 2.106,0.423c0.675,-0.144 1.563,-1.546 1.609,-2.541c0.021,-0.459 -0.8,-1.33 -1.15,-1.219c-0.228,0.072 -1.015,-1.995 -0.857,-2.25c0.082,-0.132 -0.01,-0.17 -0.214,-0.09c-0.227,0.089 -0.409,-0.051 -0.498,-0.382c-0.077,-0.287 -0.497,-0.65 -0.931,-0.804c-0.434,-0.154 -0.791,-0.43 -0.791,-0.612c0,-0.383 -0.961,-0.701 -1.158,-0.383c-0.08,0.128 -0.424,0.123 -0.781,-0.013c-0.357,-0.136 -0.576,-0.141 -0.497,-0.013c0.075,0.123 -0.039,0.409 -0.243,0.613c-0.408,0.408 -0.699,3.557 -0.306,3.315Zm2.96,-0.33c0.313,0 1.301,1.046 1.301,1.378c0,0.144 -0.332,-0.062 -0.766,-0.476c-0.842,-0.804 -0.899,-0.902 -0.535,-0.902Z" style="fill:#e99797;fill-rule:nonzero;"/></g></g></svg>